<?xml version="1.0" encoding="UTF-8"?>
<svg width="30px" height="30px" viewBox="0 0 30 30" version="1.1" xmlns="http://www.w3.org/2000/svg" xmlns:xlink="http://www.w3.org/1999/xlink">
    <!-- Generator: Sketch 60.1 (88133) - https://sketch.com -->
    <title>facebookicon</title>
    <desc>Created with Sketch.</desc>
    <g id="facebookicon" stroke="none" stroke-width="1" fill="none" fill-rule="evenodd">
        <g id="facebook-logo-white" transform="translate(3.000000, 3.000000)" fill="#FFFFFF">
            <path d="M25,12.4689012 C25,5.58251216 19.4035644,0 12.5,0 C5.59643555,0 0,5.58251216 0,12.4689012 C0,18.6924902 4.57106933,23.8509137 10.546875,24.7863248 L10.546875,16.073193 L7.37304688,16.073193 L7.37304688,12.4689012 L10.546875,12.4689012 L10.546875,9.72184642 C10.546875,6.59682806 12.4130371,4.87066455 15.2683105,4.87066455 C16.6359131,4.87066455 18.0664062,5.11419776 18.0664062,5.11419776 L18.0664062,8.18271643 L16.4901856,8.18271643 C14.9373779,8.18271643 14.453125,9.14386901 14.453125,10.129935 L14.453125,12.4689012 L17.9199219,12.4689012 L17.3657227,16.073193 L14.453125,16.073193 L14.453125,24.7863248 C20.4289306,23.8509137 25,18.6924902 25,12.4689012" id="Path"></path>
        </g>
    </g>
</svg>