<svg id="Layer_1" data-name="Layer 1" xmlns="http://www.w3.org/2000/svg" xmlns:xlink="http://www.w3.org/1999/xlink" viewBox="0 0 30.48 28.97"><defs><style>.cls-1{fill:#fff;}.cls-2{clip-path:url(#clip-path);}</style><clipPath id="clip-path"><path class="cls-1" d="M21.24,11.16h-12v-2h12Zm0,3h-12v-2h12Zm0,3h-12v-2h12Zm2-12h-16a2,2,0,0,0-2,2v18l4-4h14a2,2,0,0,0,2-2v-12A2,2,0,0,0,23.24,5.16Z"/></clipPath></defs><path class="cls-1" d="M21.24,11.16h-12v-2h12Zm0,3h-12v-2h12Zm0,3h-12v-2h12Zm2-12h-16a2,2,0,0,0-2,2v18l4-4h14a2,2,0,0,0,2-2v-12A2,2,0,0,0,23.24,5.16Z"/><g class="cls-2"><rect class="cls-1" x="0.24" y="0.16" width="30" height="30"/></g></svg>