<svg id="Layer_1" data-name="Layer 1" xmlns="http://www.w3.org/2000/svg" xmlns:xlink="http://www.w3.org/1999/xlink" viewBox="0 0 30.48 28.97"><defs><style>.cls-1{fill:#fff;}.cls-2{clip-path:url(#clip-path);}.cls-3{clip-path:url(#clip-path-2);}</style><clipPath id="clip-path"><path class="cls-1" d="M21.24-18.63h-12v-2h12Zm0,3h-12v-2h12Zm0,3h-12v-2h12Zm2-12h-16a2,2,0,0,0-2,2v18l4-4h14a2,2,0,0,0,2-2v-12A2,2,0,0,0,23.24-24.63Z"/></clipPath><clipPath id="clip-path-2"><path class="cls-1" d="M23.25,17.86a11.44,11.44,0,0,1-3.53-.56,1,1,0,0,0-1,.24l-1.57,2a15.18,15.18,0,0,1-6.89-6.83L12.2,11a1,1,0,0,0,.24-1,11.15,11.15,0,0,1-.56-3.53,1,1,0,0,0-1-1H7.43c-.54,0-1.19.24-1.19,1a17.15,17.15,0,0,0,17,17,1,1,0,0,0,1-1.18V18.85A1,1,0,0,0,23.25,17.86Z"/></clipPath></defs><path class="cls-1" d="M21.24-18.63h-12v-2h12Zm0,3h-12v-2h12Zm0,3h-12v-2h12Zm2-12h-16a2,2,0,0,0-2,2v18l4-4h14a2,2,0,0,0,2-2v-12A2,2,0,0,0,23.24-24.63Z"/><g class="cls-2"><rect class="cls-1" x="0.24" y="-29.63" width="30" height="30"/></g><path class="cls-1" d="M23.25,17.86a11.44,11.44,0,0,1-3.53-.56,1,1,0,0,0-1,.24l-1.57,2a15.18,15.18,0,0,1-6.89-6.83L12.2,11a1,1,0,0,0,.24-1,11.15,11.15,0,0,1-.56-3.53,1,1,0,0,0-1-1H7.43c-.54,0-1.19.24-1.19,1a17.15,17.15,0,0,0,17,17,1,1,0,0,0,1-1.18V18.85A1,1,0,0,0,23.25,17.86Z"/><g class="cls-3"><rect class="cls-1" x="1.24" y="0.48" width="28" height="28"/></g></svg>