<?xml version="1.0" encoding="UTF-8"?>
<svg width="29px" height="29px" viewBox="0 0 29 29" version="1.1" xmlns="http://www.w3.org/2000/svg" xmlns:xlink="http://www.w3.org/1999/xlink">
    <!-- Generator: Sketch 60.1 (88133) - https://sketch.com -->
    <title>LINKEDIN</title>
    <desc>Created with Sketch.</desc>
    <g id="LINKEDIN" stroke="none" stroke-width="1" fill="none" fill-rule="evenodd">
        <g id="linkedin-icon-1-logo-svg-vector" transform="translate(4.000000, 4.000000)" fill="#505050" fill-rule="nonzero">
            <path d="M0,3.29784689 C0,2.62797703 0.236493243,2.07534545 0.709459459,1.63995215 C1.18242568,1.20453876 1.79730405,0.986842105 2.55405405,0.986842105 C3.29730405,0.986842105 3.89864189,1.20118278 4.35810811,1.62990431 C4.83107432,2.07200957 5.06756757,2.64807273 5.06756757,3.35813397 C5.06756757,4.00119617 4.83784459,4.53706794 4.37837838,4.96578947 C3.90541216,5.40789474 3.28378378,5.62894737 2.51351351,5.62894737 L2.49324324,5.62894737 C1.74999324,5.62894737 1.14865541,5.40789474 0.689189189,4.96578947 C0.229722973,4.52368421 0,3.96769665 0,3.29784689 Z M0.263513514,20.8815789 L0.263513514,7.4576555 L4.76351351,7.4576555 L4.76351351,20.8815789 L0.263513514,20.8815789 Z M7.25675676,20.8815789 L11.7567568,20.8815789 L11.7567568,13.3858852 C11.7567568,12.9169722 11.8108176,12.5552498 11.9189189,12.3007177 C12.1081014,11.8452086 12.3952703,11.4600344 12.7804054,11.1452153 C13.1655405,10.8303761 13.6486419,10.6729665 14.2297297,10.6729665 C15.74325,10.6729665 16.5,11.6844431 16.5,13.7074163 L16.5,20.8815789 L21,20.8815789 L21,13.1849282 C21,11.2021464 20.5270338,9.69832536 19.5810811,8.67344498 C18.6351284,7.64856459 17.3851419,7.1361244 15.8310811,7.1361244 C14.0878378,7.1361244 12.7297297,7.87966507 11.7567568,9.36674641 L11.7567568,9.4069378 L11.7364865,9.4069378 L11.7567568,9.36674641 L11.7567568,7.4576555 L7.25675676,7.4576555 C7.28377703,7.88635694 7.2972973,9.21936459 7.2972973,11.4566986 C7.2972973,13.6940124 7.28377703,16.8356325 7.25675676,20.8815789 Z" id="Shape"></path>
        </g>
    </g>
</svg>