<?xml version="1.0" encoding="UTF-8"?>
<svg width="29px" height="29px" viewBox="0 0 29 29" version="1.1" xmlns="http://www.w3.org/2000/svg" xmlns:xlink="http://www.w3.org/1999/xlink">
    <!-- Generator: Sketch 60.1 (88133) - https://sketch.com -->
    <title>weixin</title>
    <desc>Created with Sketch.</desc>
    <g id="weixin" stroke="none" stroke-width="1" fill="none" fill-rule="evenodd">
        <g id="Group" transform="translate(3.000000, 5.000000)" fill="#505050" fill-rule="nonzero">
            <path d="M15.9230769,6.28735625 C13.7955928,6.39489383 11.9455874,7.0188668 10.4436168,8.42858667 C8.92609402,9.85284323 8.23336346,11.5980973 8.42271333,13.7616004 C7.59115548,13.6619687 6.833756,13.5523059 6.07205112,13.4902486 C5.80898221,13.4688261 5.49679655,13.4992597 5.27396998,13.6209089 C4.5343193,14.0247061 3.82524578,14.4806144 2.98481353,14.9888889 C3.13901725,14.31408 3.23883231,13.7231759 3.41552957,13.1547994 C3.54548245,12.7370605 3.48529467,12.5045583 3.08752814,12.2325265 C0.53363334,10.4880375 -0.542893156,7.87729719 0.262744409,5.18945285 C1.00810633,2.70291205 2.83851769,1.1949207 5.32563481,0.408833763 C8.72031333,-0.663991703 12.5353398,0.430341278 14.5995609,3.03793623 C15.3450985,3.97984639 15.802262,5.03703003 15.9230769,6.28735625 Z M6.13162384,5.4498383 C6.15121782,4.95822581 5.71092446,4.51532401 5.18794978,4.50053228 C4.65249822,4.4853155 4.212117,4.8812068 4.19647696,5.3916915 C4.1806612,5.90906201 4.58967449,6.3236555 5.12899212,6.33691705 C5.66365289,6.35000858 6.11185413,5.95360722 6.13162384,5.4498383 Z M11.2402042,4.50019224 C10.7152965,4.50954334 10.2717521,4.94207392 10.2810659,5.43564164 C10.2906432,5.94723147 10.7257525,6.34745828 11.2655095,6.34116754 C11.8066723,6.33487681 12.2170914,5.93039951 12.2119952,5.40801341 C12.2075141,4.89523344 11.7743378,4.49075614 11.2402042,4.50019224 Z" id="Shape"></path>
            <path d="M20.7752819,19 C20.0989143,18.7106981 19.478477,18.2766606 18.8179004,18.2103941 C18.1598821,18.1443817 17.4681646,18.5090173 16.7797111,18.5766397 C14.6826805,18.782727 12.8039894,18.2213255 11.2548809,16.845235 C8.30866346,14.227621 8.72963988,10.2140026 12.1382962,8.06889803 C15.1677914,6.16242084 19.6107158,6.79796973 21.7466506,9.44329369 C23.6106093,11.7516073 23.3915639,14.8158003 21.1160682,16.7549871 C20.4576088,17.3162191 20.2206552,17.7780513 20.6431313,18.517915 C20.7211161,18.6545156 20.7300261,18.8274697 20.7752819,19 L20.7752819,19 Z M13.076142,11.8395676 C13.5067342,11.8399909 13.8612824,11.5162847 13.8776028,11.1077539 C13.8948053,10.6752417 13.5326703,10.3124704 13.0817879,10.3106831 C12.6354047,10.3087418 12.2614485,10.6765975 12.2769749,11.1026695 C12.2916191,11.5097597 12.6486374,11.8390588 13.076142,11.8395676 Z M18.0393763,10.3123856 C17.6215757,10.3095892 17.2665864,10.6381256 17.2495603,11.0436058 C17.2314756,11.4772196 17.5823187,11.8332965 18.0290548,11.8344025 C18.4611467,11.8357539 18.8025505,11.5218775 18.8182533,11.1088555 C18.8350147,10.6742248 18.4839952,10.3153515 18.0393763,10.3123856 L18.0393763,10.3123856 Z" id="Shape"></path>
        </g>
    </g>
</svg>