<?xml version="1.0" encoding="UTF-8"?>
<svg width="30px" height="30px" viewBox="0 0 30 30" version="1.1" xmlns="http://www.w3.org/2000/svg" xmlns:xlink="http://www.w3.org/1999/xlink">
    <!-- Generator: Sketch 60.1 (88133) - https://sketch.com -->
    <title>微信icon</title>
    <desc>Created with Sketch.</desc>
    <g id="微信icon" stroke="none" stroke-width="1" fill="none" fill-rule="evenodd">
        <g id="Group" transform="translate(3.000000, 4.000000)" fill="#FFFFFF" fill-rule="nonzero">
            <path d="M17.3076923,7.15918602 C14.9952095,7.28163518 12.9843341,7.99213072 11.3517574,9.59732794 C9.70227611,11.2190776 8.94930811,13.2063355 9.15512318,15.6698385 C8.25125595,15.5563915 7.42799565,15.4315224 6.60005557,15.36086 C6.31411109,15.336467 5.97477886,15.3711206 5.73257606,15.5096382 C4.92860794,15.9694275 4.15787585,16.4885539 3.24436253,17.0673077 C3.41197527,16.2989271 3.5204699,15.6260859 3.71253214,14.9788961 C3.85378527,14.5032319 3.78836377,14.23849 3.35600885,13.9287372 C0.580036239,11.9423504 -0.590101257,8.96959448 0.285591748,5.90904297 C1.09576775,3.07770856 3.08534531,1.36061314 5.78873349,0.465524275 C9.47860145,-0.756063427 13.6253693,0.490014107 15.8690879,3.45918853 C16.6794549,4.53170768 17.1763718,5.7354846 17.3076923,7.15918602 Z M6.66480852,6.20553451 C6.68610632,5.64575307 6.20752658,5.14143676 5.63907585,5.12459395 C5.05706329,5.10726715 4.57838804,5.55805431 4.561388,6.13932484 C4.54419695,6.72843599 4.98877662,7.20051866 5.57499143,7.21561911 C6.15614444,7.23052596 6.64331971,6.77915802 6.66480852,6.20553451 Z M12.2176133,5.12420676 C11.6470614,5.13485451 11.164948,5.6273615 11.1750716,6.18936928 C11.1854817,6.77189819 11.6584266,7.22762203 12.245119,7.220459 C12.8333394,7.21329596 13.2794472,6.75273223 13.2739078,6.15791001 C13.269037,5.57402594 12.7981933,5.1134622 12.2176133,5.12420676 Z" id="Shape"></path>
            <path d="M22.5818282,21.6346154 C21.846646,21.3051978 21.1722576,20.8109749 20.4542396,20.7355195 C19.7390023,20.6603537 18.9871354,21.0755511 18.2388164,21.1525503 C15.9594353,21.3872145 13.9173798,20.7479668 12.2335661,19.1810622 C9.03115594,16.2004794 9.488739,11.6303168 13.1938002,9.18776345 C16.4867298,7.01692656 21.3159954,7.74060318 23.6376637,10.7527383 C25.6637057,13.3811318 25.425613,16.870218 22.952248,19.0783001 C22.2365313,19.7173548 21.9789731,20.2432265 22.4381862,21.0856825 C22.5229523,21.2412248 22.5326371,21.4381613 22.5818282,21.6346154 L22.5818282,21.6346154 Z M14.2131978,13.4812891 C14.6812328,13.4817711 15.0666113,13.1131784 15.0843508,12.6479991 C15.1030492,12.155513 14.7094242,11.7424384 14.2193347,11.7404033 C13.7341356,11.7381928 13.3276614,12.1570569 13.3445379,12.6422097 C13.3604555,13.1057487 13.748519,13.4807097 14.2131978,13.4812891 Z M19.6080177,11.7423419 C19.1538867,11.7391577 18.7680287,12.1132503 18.7495221,12.574956 C18.7298648,13.0686964 19.111216,13.4741483 19.5967987,13.4754077 C20.0664638,13.4769465 20.4375548,13.1195468 20.4546231,12.6492535 C20.4728421,12.1543551 20.0912991,11.7457191 19.6080177,11.7423419 L19.6080177,11.7423419 Z" id="Shape"></path>
        </g>
    </g>
</svg>