<?xml version="1.0" encoding="UTF-8"?>
<svg width="30px" height="30px" viewBox="0 0 30 30" version="1.1" xmlns="http://www.w3.org/2000/svg" xmlns:xlink="http://www.w3.org/1999/xlink">
    <!-- Generator: Sketch 60.1 (88133) - https://sketch.com -->
    <title>微博icon</title>
    <desc>Created with Sketch.</desc>
    <g id="微博icon" stroke="none" stroke-width="1" fill="none" fill-rule="evenodd">
        <g id="Group-33" transform="translate(3.000000, 5.000000)" fill-rule="nonzero">
            <path d="M1.82481752,14.0100298 C1.82481752,16.943588 5.60449125,19.3210215 10.2645985,19.3210215 C14.9247058,19.3210215 18.7043796,16.943588 18.7043796,14.0100298 C18.7043796,11.0764715 14.9247058,8.6990381 10.2645985,8.6990381 C5.60449125,8.6990381 1.82481752,11.0764715 1.82481752,14.0100298" id="Path" fill="#152B4C"></path>
            <path d="M10.5031588,18.9284806 C6.3639829,19.3412077 2.7904944,17.4579236 2.52144797,14.7283757 C2.25240154,11.9953595 5.39127657,9.44963115 9.52700313,9.03690408 C13.666179,8.62417701 17.2396675,10.507461 17.5052646,13.237009 C17.7777604,15.9700252 14.6388853,18.5192218 10.5031588,18.9284806 M18.7780612,9.85888993 C18.4262312,9.75137279 18.1847793,9.68200689 18.3675929,9.2172554 C18.7677133,8.20798164 18.809105,7.33743967 18.3744915,6.71314662 C17.5639029,5.5477996 15.3425452,5.6102289 12.7969521,6.68193197 C12.7969521,6.68193197 11.9967114,7.03222973 12.2036702,6.3975318 C12.5934426,5.13160423 12.5348043,4.07377434 11.9277251,3.45988618 C10.5479998,2.0691 6.87448126,3.5119106 3.72525828,6.67846367 C1.36937735,9.04730896 0,11.5618226 0,13.7364434 C0,17.8914605 5.30159443,20.4198473 10.4859122,20.4198473 C17.2845086,20.4198473 21.8065638,16.4486499 21.8065638,13.29597 C21.8100075,11.3884079 20.2129755,10.3062999 18.7780612,9.85888993" id="Shape" fill="#FFFFFF"></path>
            <path d="M23.2949966,2.18995762 C21.6532197,0.363939524 19.2319436,-0.331192364 16.9969195,0.146062365 L16.9969195,0.146062365 C16.4795528,0.256730128 16.1518872,0.768568533 16.2622588,1.2838653 C16.3726303,1.80262044 16.8796497,2.13116537 17.3970164,2.0204976 C18.9870567,1.68157758 20.7081632,2.17612415 21.8739628,3.473012 C23.0397624,4.76989984 23.3570806,6.53712569 22.8569595,8.08647437 L22.8569595,8.08647437 C22.6948513,8.59139604 22.9707802,9.13090139 23.4743504,9.29344466 C23.9779206,9.45598794 24.515982,9.17931853 24.6780902,8.67785523 C24.6780902,8.67785523 24.6780902,8.67439686 24.6780902,8.67439686 C25.3817089,6.49908364 24.9367736,4.01251734 23.2949966,2.18995762" id="Path" fill="#FFFFFF"></path>
            <path d="M20.792327,4.46526543 C19.9896249,3.56627731 18.8063312,3.22347249 17.7164555,3.46133706 C17.2701255,3.55578328 16.9864118,4.00352834 17.0798297,4.45477141 C17.1767075,4.90601447 17.6161178,5.19285115 18.0589879,5.09490692 L18.0589879,5.09490692 C18.591816,4.97947265 19.1730831,5.14737704 19.5640544,5.58462808 C19.9550257,6.02537712 20.0622833,6.62353653 19.8927471,7.14823778 L19.8927471,7.14823778 C19.7543501,7.58548881 19.9896249,8.05771993 20.4255752,8.20113826 C20.8615255,8.3410586 21.3251552,8.10319403 21.467012,7.66244499 C21.8095444,6.58855645 21.5950291,5.36425356 20.792327,4.46526543" id="Path" fill="#FFFFFF"></path>
            <path d="M10.6912883,13.9692922 C10.5462157,14.2190021 10.2249836,14.3369207 9.97628782,14.2328749 C9.727592,14.1322973 9.65160162,13.8513736 9.79322006,13.6086001 C9.93829262,13.3658266 10.2457083,13.247908 10.49095,13.3450174 C10.7396458,13.4351904 10.8294526,13.7161141 10.6912883,13.9692922 M9.36836472,15.6687068 C8.96768813,16.3103226 8.1076151,16.5912462 7.46169681,16.2964498 C6.82614084,16.0051216 6.63616487,15.25946 7.03684146,14.6317171 C7.43406394,14.0074423 8.26304999,13.7299868 8.90551417,14.0005059 C9.55488658,14.2814296 9.76213309,15.0201547 9.36836472,15.6687068 M10.874356,11.1253737 C8.90206007,10.608613 6.67416007,11.597048 5.81754115,13.3415492 C4.94365169,15.1207323 5.78990828,17.0976024 7.77947479,17.7426864 C9.84503169,18.4120477 12.2767241,17.3854625 13.1229807,15.4675516 C13.9588749,13.5877909 12.9157342,11.6560073 10.874356,11.1253737" id="Shape" fill="#FFFFFF"></path>
        </g>
    </g>
</svg>