<?xml version="1.0" encoding="UTF-8"?>
<svg width="20px" height="20px" viewBox="0 0 20 20" version="1.1" xmlns="http://www.w3.org/2000/svg" xmlns:xlink="http://www.w3.org/1999/xlink">
    <!-- Generator: Sketch 60.1 (88133) - https://sketch.com -->
    <title>招聘流程外包</title>
    <desc>Created with Sketch.</desc>
    <defs>
        <polygon id="path-1" points="2.57663468e-05 4.16666667e-05 19.9998076 4.16666667e-05 19.9998076 19.997875 2.57663468e-05 19.997875"></polygon>
    </defs>
    <g id="招聘流程外包" stroke="none" stroke-width="1" fill="none" fill-rule="evenodd">
        <g id="Group-3">
            <mask id="mask-2" fill="white">
                <use xlink:href="#path-1"></use>
            </mask>
            <g id="Clip-2"></g>
            <path d="M19.3930417,16.1745417 C17.685125,16.320375 16.3192917,17.684125 16.173875,19.3920417 L3.82595833,19.3920417 C3.68054167,17.684125 2.31470833,16.320375 0.606791667,16.1745417 L0.606791667,5.99995833 L1.91595833,9.92579167 C2.23220833,10.8757917 3.117625,11.514125 4.11929167,11.514125 L4.44470833,11.514125 L4.44470833,11.8170417 C4.44470833,12.6520417 5.123875,13.3320417 5.95929167,13.3320417 C6.795125,13.3320417 7.47470833,12.6520417 7.47470833,11.8170417 L7.47470833,11.514125 L12.5255417,11.514125 L12.5255417,11.8170417 C12.5255417,12.6520417 13.205125,13.3320417 14.040125,13.3320417 C14.8755417,13.3320417 15.5555417,12.6520417 15.5555417,11.8170417 L15.5555417,11.514125 L15.8805417,11.514125 C16.8817917,11.514125 17.767625,10.8757917 18.0842917,9.92579167 L19.3930417,6.000375 L19.3930417,16.1745417 Z M19.3930417,18.4832917 C19.3930417,18.984125 18.985125,19.3920417 18.483875,19.3920417 L16.782625,19.3920417 C16.9247083,18.0182917 18.0192917,16.9237083 19.3930417,16.7820417 L19.3930417,18.4832917 Z M1.51595833,19.3920417 C1.01470833,19.3920417 0.606791667,18.984125 0.606791667,18.4832917 L0.606791667,16.7820417 C1.98054167,16.9237083 3.075125,18.0182917 3.21720833,19.3920417 L1.51595833,19.3920417 Z M6.86845833,10.5037083 L6.86845833,11.8170417 C6.86845833,12.3182917 6.46054167,12.7257917 5.95929167,12.7257917 C5.45845833,12.7257917 5.05054167,12.3182917 5.05054167,11.8170417 L5.05054167,10.5037083 L6.86845833,10.5037083 Z M14.9492917,10.5037083 L14.9492917,11.8170417 C14.9492917,12.3182917 14.541375,12.7257917 14.040125,12.7257917 C13.5392917,12.7257917 13.131375,12.3182917 13.131375,11.8170417 L13.131375,10.5037083 L14.9492917,10.5037083 Z M0.779708333,3.40745833 C0.952208333,3.16745833 1.221375,3.02995833 1.51679167,3.02995833 L18.482625,3.02995833 C18.7784583,3.02995833 19.047625,3.167875 19.2205417,3.40745833 C19.3934583,3.64745833 19.4384583,3.94579167 19.3455417,4.226625 L17.5092917,9.73370833 C17.275125,10.4362083 16.6209583,10.907875 15.8805417,10.907875 L15.5555417,10.907875 L15.5555417,10.2007917 C15.5555417,10.0337083 15.4197083,9.897875 15.2522083,9.897875 L12.8284583,9.897875 C12.661375,9.897875 12.5255417,10.0337083 12.5255417,10.2007917 L12.5255417,10.907875 L7.47470833,10.907875 L7.47470833,10.2007917 C7.47470833,10.0337083 7.338875,9.897875 7.171375,9.897875 L4.747625,9.897875 C4.580125,9.897875 4.44470833,10.0337083 4.44470833,10.2007917 L4.44470833,10.907875 L4.11929167,10.907875 C3.378875,10.907875 2.72470833,10.4362083 2.49054167,9.73370833 L0.654291667,4.226625 C0.560958333,3.94579167 0.606375,3.64745833 0.779708333,3.40745833 L0.779708333,3.40745833 Z M6.26304167,1.919125 C6.26304167,1.19495833 6.85179167,0.606208333 7.57595833,0.606208333 L12.423875,0.606208333 C13.1480417,0.606208333 13.7372083,1.19495833 13.7372083,1.919125 L13.7372083,2.424125 L6.26304167,2.424125 L6.26304167,1.919125 Z M19.7122083,3.05329167 C19.423875,2.65329167 18.9755417,2.424125 18.482625,2.424125 L14.3430417,2.424125 L14.3430417,1.919125 C14.3430417,0.861208333 13.4817917,-4.16666667e-05 12.423875,-4.16666667e-05 L7.57595833,-4.16666667e-05 C6.517625,-4.16666667e-05 5.65679167,0.861208333 5.65679167,1.919125 L5.65679167,2.424125 L1.51679167,2.424125 C1.023875,2.424125 0.575958333,2.65329167 0.288041667,3.05329167 C0.0872083333,3.331625 -0.0107083333,3.65245833 0.000958333333,3.982875 L0.000958333333,18.4832917 C0.000958333333,19.3182917 0.680541667,19.997875 1.51595833,19.997875 L18.483875,19.997875 C19.3192917,19.997875 19.998875,19.3182917 19.998875,18.4832917 L19.998875,3.982875 C20.0105417,3.652875 19.912625,3.331625 19.7122083,3.05329167 L19.7122083,3.05329167 Z" id="Fill-1" fill="#FFFFFF" mask="url(#mask-2)"></path>
        </g>
    </g>
</svg>