<?xml version="1.0" encoding="UTF-8"?>
<svg width="55px" height="56px" viewBox="0 0 55 56" version="1.1" xmlns="http://www.w3.org/2000/svg" xmlns:xlink="http://www.w3.org/1999/xlink">
    <!-- Generator: Sketch 60.1 (88133) - https://sketch.com -->
    <title>校园猎头1</title>
    <desc>Created with Sketch.</desc>
    <g id="校园猎头1" stroke="none" stroke-width="1" fill="none" fill-rule="evenodd">
        <g id="Group" fill="#1D1D1F">
            <path d="M27.6,55.201 C27.101,55.201 26.695,54.796 26.695,54.295 C26.695,53.795 27.101,53.39 27.6,53.39 C41.821,53.39 53.39,41.82 53.39,27.6 C53.39,27.1 53.795,26.694 54.295,26.694 C54.796,26.694 55.201,27.1 55.201,27.6 C55.201,42.819 42.82,55.201 27.6,55.201" id="Fill-169"></path>
            <path d="M0.906,28.506 C0.406,28.506 0,28.1 0,27.6 C0,12.381 12.382,0 27.6,0 C28.101,0 28.506,0.405 28.506,0.905 C28.506,1.405 28.101,1.811 27.6,1.811 C13.38,1.811 1.811,13.38 1.811,27.6 C1.811,28.1 1.406,28.506 0.906,28.506" id="Fill-170"></path>
            <path d="M27.6,51.236 C22.426,51.236 17.511,49.594 13.39,46.487 C12.99,46.187 12.911,45.619 13.211,45.219 C13.513,44.82 14.08,44.741 14.479,45.042 C18.285,47.909 22.822,49.424 27.6,49.424 C39.635,49.424 49.425,39.634 49.425,27.6 C49.425,18.595 44.018,10.63 35.65,7.307 C35.185,7.123 34.958,6.596 35.143,6.131 C35.327,5.667 35.854,5.44 36.318,5.624 C45.381,9.222 51.236,17.848 51.236,27.6 C51.236,40.632 40.633,51.236 27.6,51.236" id="Fill-171"></path>
            <path d="M9.977,42.861 C9.715,42.861 9.454,42.748 9.275,42.528 C5.85,38.329 3.965,33.028 3.965,27.6 C3.965,14.567 14.568,3.964 27.6,3.964 C28.728,3.964 29.862,4.045 30.971,4.203 C31.466,4.274 31.81,4.732 31.74,5.227 C31.669,5.723 31.21,6.068 30.716,5.996 C29.691,5.85 28.643,5.776 27.6,5.776 C15.566,5.776 5.776,15.566 5.776,27.6 C5.776,32.612 7.517,37.507 10.679,41.383 C10.995,41.771 10.937,42.341 10.549,42.658 C10.381,42.795 10.179,42.861 9.977,42.861" id="Fill-172"></path>
            <path d="M27.6,25.646 C26.523,25.646 25.646,26.522 25.646,27.6 C25.646,28.678 26.523,29.554 27.6,29.554 C28.679,29.554 29.555,28.678 29.555,27.6 C29.555,26.522 28.679,25.646 27.6,25.646 Z M27.6,31.365 C25.524,31.365 23.835,29.676 23.835,27.6 C23.835,25.524 25.524,23.835 27.6,23.835 C29.677,23.835 31.366,25.524 31.366,27.6 C31.366,29.676 29.677,31.365 27.6,31.365 L27.6,31.365 Z" id="Fill-173"></path>
            <path d="M27.6,9.668 C27.101,9.668 26.695,9.262 26.695,8.762 L26.695,4.87 C26.695,4.37 27.101,3.964 27.6,3.964 C28.101,3.964 28.506,4.37 28.506,4.87 L28.506,8.762 C28.506,9.262 28.101,9.668 27.6,9.668" id="Fill-174"></path>
            <path d="M37.019,12.191 C36.865,12.191 36.709,12.152 36.567,12.07 C36.134,11.82 35.985,11.266 36.235,10.833 L38.181,7.463 C38.432,7.029 38.987,6.882 39.418,7.131 C39.851,7.381 40,7.935 39.749,8.368 L37.804,11.738 C37.636,12.029 37.331,12.191 37.019,12.191" id="Fill-175"></path>
            <path d="M43.915,19.087 C43.603,19.087 43.298,18.924 43.131,18.634 C42.88,18.2 43.029,17.647 43.462,17.397 L46.832,15.451 C47.265,15.2 47.82,15.349 48.07,15.782 C48.32,16.215 48.171,16.769 47.738,17.019 L44.368,18.965 C44.225,19.048 44.069,19.087 43.915,19.087" id="Fill-176"></path>
            <path d="M50.33,28.506 L46.438,28.506 C45.938,28.506 45.533,28.1 45.533,27.6 C45.533,27.1 45.938,26.694 46.438,26.694 L50.33,26.694 C50.831,26.694 51.236,27.1 51.236,27.6 C51.236,28.1 50.831,28.506 50.33,28.506" id="Fill-177"></path>
            <path d="M47.285,39.871 C47.131,39.871 46.975,39.832 46.832,39.749 L43.462,37.803 C43.029,37.553 42.88,36.999 43.131,36.566 C43.381,36.133 43.935,35.985 44.368,36.235 L47.738,38.181 C48.171,38.431 48.32,38.985 48.07,39.418 C47.902,39.708 47.598,39.871 47.285,39.871" id="Fill-178"></path>
            <path d="M38.966,48.19 C38.653,48.19 38.349,48.028 38.181,47.737 L36.235,44.367 C35.985,43.934 36.134,43.38 36.567,43.13 C36.999,42.88 37.553,43.028 37.804,43.462 L39.749,46.832 C40,47.265 39.851,47.819 39.418,48.069 C39.276,48.152 39.12,48.19 38.966,48.19" id="Fill-179"></path>
            <path d="M27.6,51.236 C27.101,51.236 26.695,50.83 26.695,50.33 L26.695,46.438 C26.695,45.938 27.101,45.532 27.6,45.532 C28.101,45.532 28.506,45.938 28.506,46.438 L28.506,50.33 C28.506,50.83 28.101,51.236 27.6,51.236" id="Fill-180"></path>
            <path d="M16.235,48.19 C16.081,48.19 15.926,48.152 15.783,48.069 C15.35,47.819 15.202,47.265 15.451,46.832 L17.397,43.462 C17.647,43.028 18.203,42.88 18.634,43.13 C19.067,43.38 19.216,43.934 18.966,44.367 L17.02,47.737 C16.852,48.028 16.548,48.19 16.235,48.19" id="Fill-181"></path>
            <path d="M7.916,39.871 C7.604,39.871 7.299,39.708 7.132,39.418 C6.881,38.985 7.03,38.431 7.463,38.181 L10.834,36.235 C11.266,35.985 11.821,36.133 12.071,36.566 C12.321,36.999 12.172,37.553 11.739,37.803 L8.369,39.749 C8.226,39.832 8.07,39.871 7.916,39.871" id="Fill-182"></path>
            <path d="M8.763,28.506 L4.87,28.506 C4.371,28.506 3.965,28.1 3.965,27.6 C3.965,27.1 4.371,26.694 4.87,26.694 L8.763,26.694 C9.263,26.694 9.668,27.1 9.668,27.6 C9.668,28.1 9.263,28.506 8.763,28.506" id="Fill-183"></path>
            <path d="M11.286,19.087 C11.132,19.087 10.976,19.048 10.834,18.965 L7.463,17.019 C7.03,16.769 6.881,16.215 7.132,15.782 C7.382,15.349 7.936,15.2 8.369,15.451 L11.739,17.397 C12.172,17.647 12.321,18.2 12.071,18.634 C11.903,18.924 11.599,19.087 11.286,19.087" id="Fill-184"></path>
            <path d="M18.183,12.191 C17.87,12.191 17.565,12.029 17.397,11.738 L15.451,8.368 C15.202,7.935 15.35,7.381 15.783,7.131 C16.215,6.882 16.77,7.029 17.02,7.463 L18.966,10.833 C19.216,11.266 19.067,11.82 18.634,12.07 C18.492,12.152 18.336,12.191 18.183,12.191" id="Fill-185"></path>
            <path d="M29.411,26.352 C29.22,26.352 29.023,26.273 28.821,26.07 C28.467,25.716 28.467,25.143 28.821,24.79 C28.838,24.773 28.855,24.757 28.873,24.741 C29.238,24.408 35.616,18.386 38.066,16.072 C38.429,15.729 39.002,15.745 39.346,16.109 C39.689,16.472 39.673,17.046 39.309,17.389 L30.479,25.719 C30.167,26.011 29.805,26.352 29.411,26.352" id="Fill-186"></path>
            <path d="M27.6,36.937 C27.101,36.937 26.695,36.532 26.695,36.032 L26.695,30.46 C26.695,29.96 27.101,29.554 27.6,29.554 C28.101,29.554 28.506,29.96 28.506,30.46 L28.506,36.032 C28.506,36.532 28.101,36.937 27.6,36.937" id="Fill-187"></path>
        </g>
    </g>
</svg>