<?xml version="1.0" encoding="UTF-8"?>
<svg width="57px" height="56px" viewBox="0 0 57 56" version="1.1" xmlns="http://www.w3.org/2000/svg" xmlns:xlink="http://www.w3.org/1999/xlink">
    <!-- Generator: Sketch 60.1 (88133) - https://sketch.com -->
    <title>校园猎头2</title>
    <desc>Created with Sketch.</desc>
    <g id="校园猎头2" stroke="none" stroke-width="1" fill="none" fill-rule="evenodd">
        <g id="Group-3" transform="translate(0.000000, -0.500000)" fill="#1D1D1F">
            <path d="M27.58775,48.5388255 C26.59375,48.5388255 25.59275,48.4688255 24.61375,48.3288255 C24.11875,48.2588255 23.77475,47.8008255 23.84575,47.3058255 C23.91575,46.8108255 24.37275,46.4618255 24.86875,46.5358255 C25.76475,46.6638255 26.67875,46.7288255 27.58775,46.7288255 C33.65475,46.7288255 39.22775,43.9438255 42.87775,39.0878255 C43.17775,38.6878255 43.74575,38.6088255 44.14575,38.9078255 C44.54475,39.2088255 44.62575,39.7768255 44.32475,40.1758255 C40.32975,45.4908255 34.22975,48.5388255 27.58775,48.5388255" id="Fill-188"></path>
            <path d="M19.92675,47.0218255 C19.81075,47.0218255 19.69375,46.9988255 19.57975,46.9518255 C14.35575,44.7868255 10.17375,40.5278255 8.10575,35.2658255 C7.92175,34.7998255 8.15175,34.2748255 8.61675,34.0918255 C9.08275,33.9078255 9.60875,34.1378255 9.79075,34.6038255 C11.68075,39.4088255 15.50075,43.3018255 20.27375,45.2798255 C20.73575,45.4708255 20.95475,45.9998255 20.76375,46.4618255 C20.61875,46.8108255 20.28175,47.0218255 19.92675,47.0218255" id="Fill-189"></path>
            <path d="M7.77375,31.4098255 C7.33075,31.4098255 6.94475,31.0858255 6.87775,30.6348255 C6.73375,29.6428255 6.66075,28.6248255 6.66075,27.6128255 C6.66075,19.5028255 11.41375,12.0508255 18.77075,8.62882555 C19.22375,8.41782555 19.76275,8.61382555 19.97375,9.06782555 C20.18475,9.52182555 19.98775,10.0598255 19.53375,10.2718255 C12.81475,13.3978255 8.47175,20.2038255 8.47175,27.6128255 C8.47175,28.5378255 8.53775,29.4678255 8.67075,30.3748255 C8.74175,30.8698255 8.39975,31.3288255 7.90375,31.4018255 C7.86075,31.4068255 7.81775,31.4098255 7.77375,31.4098255" id="Fill-190"></path>
            <path d="M46.07275,36.2208255 C45.95675,36.2208255 45.83875,36.1988255 45.72475,36.1518255 C45.26375,35.9588255 45.04575,35.4288255 45.23775,34.9668255 C46.21075,32.6348255 46.70375,30.1598255 46.70375,27.6128255 C46.70375,17.0718255 38.12775,8.49682555 27.58775,8.49682555 C26.57375,8.49682555 25.55875,8.57582555 24.57175,8.73382555 C24.07975,8.81182555 23.61375,8.47482555 23.53575,7.98182555 C23.45675,7.48782555 23.79375,7.02382555 24.28775,6.94482555 C25.36875,6.77282555 26.47975,6.68582555 27.58775,6.68582555 C39.12675,6.68582555 48.51475,16.0728255 48.51475,27.6128255 C48.51475,30.4008255 47.97475,33.1098255 46.90875,35.6638255 C46.76475,36.0118255 46.42775,36.2208255 46.07275,36.2208255" id="Fill-191"></path>
            <path d="M27.58775,35.1918255 C23.40775,35.1918255 20.00875,31.7918255 20.00875,27.6128255 C20.00875,23.4338255 23.40775,20.0328255 27.58775,20.0328255 C31.76675,20.0328255 35.16675,23.4338255 35.16675,27.6128255 C35.16675,28.7638255 34.91575,29.8688255 34.41975,30.8988255 C34.20375,31.3488255 33.66375,31.5378255 33.21075,31.3208255 C32.76075,31.1038255 32.57075,30.5628255 32.78775,30.1118255 C33.16475,29.3308255 33.35575,28.4888255 33.35575,27.6128255 C33.35575,24.4318255 30.76875,21.8448255 27.58775,21.8448255 C24.40675,21.8448255 21.81975,24.4318255 21.81975,27.6128255 C21.81975,30.7928255 24.40675,33.3808255 27.58775,33.3808255 C28.31975,33.3808255 29.03275,33.2458255 29.70875,32.9788255 C30.17275,32.7958255 30.69975,33.0228255 30.88375,33.4888255 C31.06775,33.9528255 30.83975,34.4798255 30.37375,34.6628255 C29.48575,35.0138255 28.54875,35.1918255 27.58775,35.1918255" id="Fill-192"></path>
            <path d="M27.58775,8.49682555 C27.08775,8.49682555 26.68275,8.09182555 26.68275,7.59182555 L26.68275,0.916825549 C26.68275,0.416825549 27.08775,0.0118255485 27.58775,0.0118255485 C28.08775,0.0118255485 28.49275,0.416825549 28.49275,0.916825549 L28.49275,7.59182555 C28.49275,8.09182555 28.08775,8.49682555 27.58775,8.49682555" id="Fill-193"></path>
            <path d="M27.58775,55.2128255 C27.08775,55.2128255 26.68275,54.8078255 26.68275,54.3078255 L26.68275,47.6338255 C26.68275,47.1338255 27.08775,46.7288255 27.58775,46.7288255 C28.08775,46.7288255 28.49275,47.1338255 28.49275,47.6338255 L28.49275,54.3078255 C28.49275,54.8078255 28.08775,55.2128255 27.58775,55.2128255" id="Fill-194"></path>
            <path d="M46.46375,47.3938255 C46.23275,47.3938255 46.00075,47.3058255 45.82375,47.1288255 L41.10575,42.4098255 C40.75175,42.0568255 40.75175,41.4838255 41.10575,41.1298255 C41.45875,40.7758255 42.03175,40.7758255 42.38575,41.1298255 L47.10475,45.8488255 C47.45775,46.2018255 47.45775,46.7758255 47.10475,47.1288255 C46.92775,47.3058255 46.69575,47.3938255 46.46375,47.3938255" id="Fill-195"></path>
            <path d="M47.60975,28.5178255 L40.93575,28.5178255 C40.43575,28.5178255 40.02975,28.1128255 40.02975,27.6128255 C40.02975,27.1128255 40.43575,26.7068255 40.93575,26.7068255 L47.60975,26.7068255 C48.10975,26.7068255 48.51475,27.1128255 48.51475,27.6128255 C48.51475,28.1128255 48.10975,28.5178255 47.60975,28.5178255" id="Fill-196"></path>
            <path d="M27.58775,55.1998255 C20.51975,55.1998255 13.45175,52.5098255 8.07075,47.1288255 C-2.69025,36.3668255 -2.69025,18.8568255 8.07075,8.09582555 C15.93475,0.232825549 27.67475,-2.14617445 37.97875,2.03482555 C38.44175,2.22382555 38.66475,2.75082555 38.47775,3.21382555 C38.28775,3.67882555 37.75675,3.90082555 37.29775,3.71282555 C27.66775,-0.192174451 16.69875,2.02882555 9.35275,9.37582555 C-0.70325,19.4318255 -0.70325,35.7918255 9.35275,45.8488255 C19.40775,55.9048255 35.76875,55.9048255 45.82375,45.8488255 C55.87875,35.7918255 55.87875,19.4318255 45.82375,9.37582555 C44.80075,8.35382555 43.69075,7.41382555 42.52375,6.58282555 C42.11675,6.29182555 42.02175,5.72782555 42.31175,5.31982555 C42.60275,4.91282555 43.16675,4.81882555 43.57475,5.10782555 C44.82175,5.99682555 46.00975,7.00182555 47.10475,8.09582555 C57.86575,18.8568255 57.86575,36.3668255 47.10475,47.1288255 C41.72375,52.5098255 34.65575,55.1998255 27.58775,55.1998255" id="Fill-197"></path>
            <path d="M27.58775,41.8648255 C27.08775,41.8648255 26.68275,41.4598255 26.68275,40.9598255 L26.68275,34.2858255 C26.68275,33.7858255 27.08775,33.3808255 27.58775,33.3808255 C28.08775,33.3808255 28.49275,33.7858255 28.49275,34.2858255 L28.49275,40.9598255 C28.49275,41.4598255 28.08775,41.8648255 27.58775,41.8648255" id="Fill-198"></path>
            <path d="M13.43175,42.6748255 C13.19875,42.6748255 12.96775,42.5858255 12.79075,42.4088255 C12.43775,42.0558255 12.43775,41.4828255 12.79075,41.1288255 L17.51075,36.4088255 C17.86375,36.0558255 18.43775,36.0558255 18.79075,36.4088255 C19.14475,36.7628255 19.14475,37.3358255 18.79075,37.6898255 L14.07075,42.4088255 C13.89475,42.5858255 13.66275,42.6748255 13.43175,42.6748255" id="Fill-199"></path>
            <path d="M18.15075,19.0798255 C17.91775,19.0798255 17.68675,18.9908255 17.50975,18.8148255 L12.79075,14.0958255 C12.43775,13.7418255 12.43775,13.1688255 12.79075,12.8158255 C13.14475,12.4618255 13.71775,12.4618255 14.07075,12.8158255 L18.78975,17.5338255 C19.14375,17.8878255 19.14375,18.4608255 18.78975,18.8148255 C18.61275,18.9908255 18.38175,19.0798255 18.15075,19.0798255" id="Fill-200"></path>
            <path d="M27.58775,41.8648255 C19.72875,41.8648255 13.33475,35.4718255 13.33475,27.6128255 C13.33475,19.7528255 19.72875,13.3598255 27.58775,13.3598255 C28.61075,13.3598255 29.63275,13.4678255 30.62275,13.6838255 C31.11175,13.7888255 31.42275,14.2718255 31.31675,14.7598255 C31.20975,15.2488255 30.72675,15.5618255 30.23875,15.4528255 C29.37375,15.2658255 28.48275,15.1698255 27.58775,15.1698255 C20.72775,15.1698255 15.14675,20.7508255 15.14675,27.6128255 C15.14675,34.4728255 20.72775,40.0538255 27.58775,40.0538255 C34.44875,40.0538255 40.02975,34.4728255 40.02975,27.6128255 C40.02975,23.2998255 37.84575,19.3558255 34.18575,17.0618255 C33.76175,16.7958255 33.63375,16.2378255 33.89975,15.8138255 C34.16375,15.3908255 34.72475,15.2628255 35.14775,15.5268255 C39.33875,18.1548255 41.84075,22.6718255 41.84075,27.6128255 C41.84075,35.4718255 35.44675,41.8648255 27.58775,41.8648255" id="Fill-201"></path>
        </g>
    </g>
</svg>