<?xml version="1.0" encoding="UTF-8"?>
<svg width="53px" height="53px" viewBox="0 0 53 53" version="1.1" xmlns="http://www.w3.org/2000/svg" xmlns:xlink="http://www.w3.org/1999/xlink">
    <!-- Generator: Sketch 60.1 (88133) - https://sketch.com -->
    <title>校园猎头3</title>
    <desc>Created with Sketch.</desc>
    <g id="校园猎头3" stroke="none" stroke-width="1" fill="none" fill-rule="evenodd">
        <g id="Group-2" transform="translate(0.000000, -0.500000)" fill="#1D1D1F">
            <path d="M6.96495005,21.756 L45.4009501,21.756 L39.7119501,15.132 L12.6539501,15.132 L6.96495005,21.756 Z M47.3729501,23.567 L4.99395005,23.567 C4.63995005,23.567 4.31895005,23.361 4.17095005,23.039 C4.02295005,22.718 4.07595005,22.34 4.30695005,22.071 L11.5509501,13.637 C11.7229501,13.436 11.9739501,13.321 12.2379501,13.321 L40.1279501,13.321 C40.3919501,13.321 40.6429501,13.436 40.8159501,13.637 L48.0599501,22.071 C48.2899501,22.34 48.3429501,22.718 48.1959501,23.039 C48.0469501,23.361 47.7259501,23.567 47.3729501,23.567 L47.3729501,23.567 Z" id="Fill-1"></path>
            <path d="M13.2919501,15.132 L14.2159501,21.144 L23.5449501,15.132 L13.2919501,15.132 Z M13.5329501,23.567 C13.4059501,23.567 13.2799501,23.54 13.1609501,23.487 C12.8809501,23.361 12.6839501,23.102 12.6379501,22.799 L11.3429501,14.364 C11.3029501,14.103 11.3779501,13.837 11.5509501,13.637 C11.7229501,13.436 11.9739501,13.321 12.2379501,13.321 L26.6229501,13.321 C27.0249501,13.321 27.3779501,13.586 27.4919501,13.971 C27.6049501,14.356 27.4519501,14.77 27.1139501,14.988 L14.0229501,23.422 C13.8739501,23.518 13.7039501,23.567 13.5329501,23.567 L13.5329501,23.567 Z" id="Fill-2"></path>
            <path d="M28.8209501,15.132 L38.1509501,21.144 L39.0739501,15.132 L28.8209501,15.132 Z M38.8329501,23.567 C38.6629501,23.567 38.4929501,23.518 38.3429501,23.422 L25.2529501,14.988 C24.9149501,14.77 24.7609501,14.356 24.8739501,13.971 C24.9879501,13.586 25.3409501,13.321 25.7439501,13.321 L40.1279501,13.321 C40.3919501,13.321 40.6429501,13.436 40.8159501,13.637 C40.9879501,13.837 41.0639501,14.103 41.0239501,14.364 L39.7289501,22.799 C39.6819501,23.102 39.4859501,23.361 39.2059501,23.487 C39.0869501,23.54 38.9599501,23.567 38.8329501,23.567 L38.8329501,23.567 Z" id="Fill-3"></path>
            <path d="M6.74795005,23.567 L25.7579501,50.304 L45.5749501,23.567 L6.74795005,23.567 Z M25.7439501,52.75 C25.4439501,52.748 25.1729501,52.606 25.0049501,52.37 L4.25495005,23.186 C4.05895005,22.91 4.03395005,22.547 4.18895005,22.246 C4.34395005,21.945 4.65495005,21.756 4.99395005,21.756 L47.3729501,21.756 C47.7149501,21.756 48.0279501,21.949 48.1809501,22.254 C48.3349501,22.559 48.3039501,22.926 48.0999501,23.2 L26.4699501,52.384 C26.2999501,52.615 26.0299501,52.75 25.7439501,52.75 L25.7439501,52.75 Z" id="Fill-4"></path>
            <path d="M14.9009501,23.567 L25.9379501,49.568 L37.4429501,23.567 L14.9009501,23.567 Z M25.9199501,52.75 C25.5529501,52.748 25.2279501,52.531 25.0869501,52.199 L12.6999501,23.015 C12.5809501,22.736 12.6099501,22.415 12.7779501,22.162 C12.9459501,21.908 13.2289501,21.756 13.5329501,21.756 L38.8329501,21.756 C39.1399501,21.756 39.4249501,21.911 39.5929501,22.167 C39.7599501,22.424 39.7859501,22.747 39.6629501,23.028 L26.7489501,52.211 C26.6029501,52.539 26.2789501,52.75 25.9199501,52.75 L25.9199501,52.75 Z" id="Fill-5"></path>
            <path d="M26.1829501,5.418 C25.6829501,5.418 25.2779501,5.013 25.2779501,4.513 L25.2779501,0.905 C25.2779501,0.405 25.6829501,0 26.1829501,0 C26.6829501,0 27.0879501,0.405 27.0879501,0.905 L27.0879501,4.513 C27.0879501,5.013 26.6829501,5.418 26.1829501,5.418" id="Fill-6"></path>
            <path d="M33.7279501,6.749 C33.6249501,6.749 33.5209501,6.731 33.4179501,6.694 C32.9489501,6.523 32.7059501,6.003 32.8769501,5.533 L34.1109501,2.143 C34.2819501,1.674 34.7999501,1.432 35.2719501,1.602 C35.7419501,1.773 35.9839501,2.293 35.8129501,2.763 L34.5799501,6.153 C34.4459501,6.52 34.0979501,6.749 33.7279501,6.749" id="Fill-7"></path>
            <path d="M40.3629501,10.58 C40.1579501,10.58 39.9509501,10.51 39.7809501,10.368 C39.3979501,10.046 39.3479501,9.475 39.6689501,9.092 L41.9879501,6.329 C42.3099501,5.946 42.8799501,5.894 43.2639501,6.217 C43.6469501,6.538 43.6969501,7.109 43.3749501,7.493 L41.0569501,10.256 C40.8769501,10.47 40.6219501,10.58 40.3629501,10.58" id="Fill-8"></path>
            <path d="M45.2889501,16.449 C44.9759501,16.449 44.6709501,16.286 44.5039501,15.996 C44.2529501,15.563 44.4019501,15.009 44.8349501,14.759 L47.9589501,12.955 C48.3929501,12.704 48.9459501,12.853 49.1959501,13.286 C49.4469501,13.719 49.2969501,14.273 48.8649501,14.523 L45.7409501,16.327 C45.5979501,16.41 45.4419501,16.449 45.2889501,16.449" id="Fill-9"></path>
            <path d="M51.4609501,31.935 C51.4099501,31.935 51.3569501,31.931 51.3029501,31.921 L47.7509501,31.295 C47.2589501,31.208 46.9299501,30.739 47.0159501,30.246 C47.1029501,29.754 47.5669501,29.421 48.0649501,29.512 L51.6179501,30.138 C52.1099501,30.224 52.4389501,30.694 52.3529501,31.187 C52.2749501,31.626 51.8929501,31.935 51.4609501,31.935" id="Fill-10"></path>
            <path d="M48.4119501,40.312 C48.2579501,40.312 48.1019501,40.273 47.9589501,40.19 L44.8349501,38.387 C44.4019501,38.137 44.2529501,37.583 44.5029501,37.15 C44.7539501,36.717 45.3069501,36.568 45.7409501,36.818 L48.8649501,38.622 C49.2969501,38.872 49.4469501,39.426 49.1969501,39.859 C49.0279501,40.149 48.7239501,40.312 48.4119501,40.312" id="Fill-11"></path>
            <path d="M42.6819501,47.14 C42.4229501,47.14 42.1669501,47.031 41.9879501,46.817 L39.6689501,44.054 C39.3479501,43.67 39.3979501,43.099 39.7809501,42.778 C40.1649501,42.456 40.7359501,42.506 41.0569501,42.89 L43.3749501,45.653 C43.6969501,46.036 43.6469501,46.607 43.2639501,46.929 C43.0939501,47.071 42.8869501,47.14 42.6819501,47.14" id="Fill-12"></path>
            <path d="M34.9619501,51.598 C34.5919501,51.598 34.2449501,51.37 34.1109501,51.002 L32.8769501,47.612 C32.7059501,47.142 32.9489501,46.622 33.4179501,46.452 C33.8909501,46.281 34.4079501,46.523 34.5799501,46.993 L35.8129501,50.382 C35.9839501,50.852 35.7419501,51.371 35.2719501,51.543 C35.1689501,51.579 35.0649501,51.598 34.9619501,51.598" id="Fill-13"></path>
            <path d="M17.4049501,51.598 C17.3009501,51.598 17.1969501,51.579 17.0939501,51.543 C16.6239501,51.371 16.3819501,50.852 16.5529501,50.382 L17.7879501,46.993 C17.9569501,46.523 18.4749501,46.281 18.9479501,46.452 C19.4169501,46.622 19.6609501,47.142 19.4899501,47.612 L18.2549501,51.002 C18.1219501,51.37 17.7749501,51.598 17.4049501,51.598" id="Fill-14"></path>
            <path d="M9.68395005,47.14 C9.47895005,47.14 9.27195005,47.071 9.10295005,46.929 C8.71995005,46.607 8.66895005,46.036 8.99095005,45.653 L11.3089501,42.89 C11.6309501,42.506 12.2019501,42.456 12.5849501,42.778 C12.9679501,43.099 13.0179501,43.67 12.6969501,44.054 L10.3779501,46.817 C10.1989501,47.031 9.94295005,47.14 9.68395005,47.14" id="Fill-15"></path>
            <path d="M3.95595005,40.312 C3.64195005,40.312 3.33795005,40.149 3.16895005,39.859 C2.91995005,39.426 3.06895005,38.872 3.50095005,38.622 L6.62495005,36.818 C7.05895005,36.568 7.61195005,36.717 7.86295005,37.15 C8.11295005,37.583 7.96395005,38.137 7.53195005,38.387 L4.40695005,40.19 C4.26395005,40.273 4.10895005,40.312 3.95595005,40.312" id="Fill-16"></path>
            <path d="M0.905950053,31.935 C0.473950053,31.935 0.0909500525,31.626 0.0139500525,31.187 C-0.0730499475,30.694 0.255950053,30.224 0.747950053,30.138 L4.30095005,29.512 C4.79395005,29.42 5.26195005,29.753 5.34995005,30.246 C5.43695005,30.739 5.10795005,31.208 4.61495005,31.295 L1.06295005,31.921 C1.00995005,31.931 0.955950053,31.935 0.905950053,31.935" id="Fill-17"></path>
            <path d="M7.07795005,16.449 C6.92395005,16.449 6.76895005,16.41 6.62495005,16.327 L3.50095005,14.523 C3.06895005,14.273 2.91995005,13.719 3.16995005,13.286 C3.41995005,12.853 3.97295005,12.704 4.40695005,12.955 L7.53195005,14.759 C7.96395005,15.009 8.11295005,15.563 7.86295005,15.996 C7.69495005,16.286 7.38995005,16.449 7.07795005,16.449" id="Fill-18"></path>
            <path d="M12.0029501,10.58 C11.7449501,10.58 11.4889501,10.47 11.3089501,10.256 L8.99095005,7.493 C8.66895005,7.109 8.71995005,6.538 9.10295005,6.217 C9.48695005,5.894 10.0569501,5.946 10.3779501,6.329 L12.6969501,9.092 C13.0179501,9.475 12.9679501,10.046 12.5849501,10.368 C12.4149501,10.51 12.2079501,10.58 12.0029501,10.58" id="Fill-19"></path>
            <path d="M18.6379501,6.749 C18.2679501,6.749 17.9209501,6.52 17.7879501,6.153 L16.5529501,2.763 C16.3819501,2.293 16.6239501,1.773 17.0939501,1.602 C17.5669501,1.432 18.0849501,1.674 18.2549501,2.143 L19.4899501,5.533 C19.6609501,6.003 19.4169501,6.523 18.9479501,6.694 C18.8449501,6.731 18.7409501,6.749 18.6379501,6.749" id="Fill-20"></path>
        </g>
    </g>
</svg>