<?xml version="1.0" encoding="UTF-8"?>
<svg width="50px" height="50px" viewBox="0 0 50 50" version="1.1" xmlns="http://www.w3.org/2000/svg" xmlns:xlink="http://www.w3.org/1999/xlink">
    <!-- Generator: Sketch 60.1 (88133) - https://sketch.com -->
    <title>核心竞争力1</title>
    <desc>Created with Sketch.</desc>
    <g id="核心竞争力1" stroke="none" stroke-width="1" fill="none" fill-rule="evenodd">
        <g id="Group-3-Copy" transform="translate(10.000000, 10.000000)" fill="#4272D7">
            <path d="M25.375,17.3929167 C25.1125,18.5316667 24.6625,19.615 24.0416667,20.6125 L23.7875,21.0195833 L25.8166667,23.4258333 L23.425,25.8145833 L21.0208333,23.7875 L20.6125,24.0416667 C19.6166667,24.6633333 18.5333333,25.1125 17.3916667,25.3766667 L16.925,25.4845833 L16.6583333,28.6183333 L13.2791667,28.6183333 L13.0125,25.4845833 L12.5458333,25.3766667 C11.4041667,25.1125 10.3208333,24.6633333 9.325,24.0416667 L8.91666667,23.7875 L6.5125,25.8145833 L4.12083333,23.4258333 L6.15,21.0195833 L5.89583333,20.6125 C5.275,19.615 4.825,18.5316667 4.5625,17.3929167 L4.45416667,16.9258333 L1.32083333,16.6579167 L1.32083333,13.2791667 L4.45416667,13.01125 L4.5625,12.5441667 C4.825,11.405 5.275,10.3220833 5.89583333,9.32458333 L6.15,8.91791667 L4.12083333,6.51125 L6.5125,4.1225 L8.91666667,6.14958333 L9.325,5.89583333 C10.3208333,5.27416667 11.4041667,4.82458333 12.5458333,4.56083333 L13.0125,4.45208333 L13.2791667,1.31875 L16.6583333,1.31875 L16.925,4.45208333 L17.3916667,4.56083333 C18.5333333,4.82458333 19.6166667,5.27416667 20.6125,5.89583333 L21.0208333,6.14958333 L23.425,4.1225 L25.8166667,6.51125 L23.7875,8.91791667 L24.0416667,9.32458333 C24.6625,10.3220833 25.1125,11.405 25.375,12.5441667 L25.4833333,13.01125 L28.6166667,13.2791667 L28.6166667,16.6579167 L25.4833333,16.9258333 L25.375,17.3929167 Z M29.9375,17.8683333 L29.9375,12.06875 L26.5416667,11.7783333 C26.2791667,10.8229167 25.9,9.90583333 25.4083333,9.04166667 L27.6041667,6.435 L23.5041667,2.33416667 L20.8958333,4.52958333 C20.0333333,4.03791667 19.1125,3.6575 18.1583333,3.39458333 L17.8666667,0 L12.0708333,0 L11.7791667,3.39458333 C10.825,3.6575 9.90416667,4.03791667 9.04166667,4.52958333 L6.43333333,2.33416667 L2.33333333,6.435 L4.52916667,9.04166667 C4.0375,9.90583333 3.65833333,10.8229167 3.39583333,11.7783333 L0,12.06875 L0,17.8683333 L3.39583333,18.15875 C3.65833333,19.1141667 4.0375,20.03125 4.52916667,20.8954167 L2.33333333,23.5025 L6.43333333,27.6029167 L9.04166667,25.4075 C9.90416667,25.8995833 10.825,26.28 11.7791667,26.5425 L12.0708333,29.9366667 L17.8666667,29.9366667 L18.1583333,26.5425 C19.1125,26.28 20.0333333,25.8995833 20.8958333,25.4075 L23.5041667,27.6029167 L27.6041667,23.5025 L25.4083333,20.8954167 C25.9,20.03125 26.2791667,19.1141667 26.5416667,18.15875 L29.9375,17.8683333 L29.9375,17.8683333 Z" id="Fill-48"></path>
            <path d="M14.9666667,18.87375 C12.8166667,18.87375 11.0625,17.1216667 11.0625,14.9683333 C11.0625,12.815 12.8166667,11.0633333 14.9666667,11.0633333 C17.1208333,11.0633333 18.875,12.815 18.875,14.9683333 C18.875,17.1216667 17.1208333,18.87375 14.9666667,18.87375 Z M14.9666667,9.74458333 C12.0875,9.74458333 9.74583333,12.0879167 9.74583333,14.9683333 C9.74583333,17.84875 12.0875,20.1925 14.9666667,20.1925 C17.85,20.1925 20.1916667,17.84875 20.1916667,14.9683333 C20.1916667,12.0879167 17.85,9.74458333 14.9666667,9.74458333 L14.9666667,9.74458333 Z" id="Fill-49"></path>
        </g>
    </g>
</svg>