<?xml version="1.0" encoding="UTF-8"?>
<svg width="30px" height="30px" viewBox="0 0 30 30" version="1.1" xmlns="http://www.w3.org/2000/svg" xmlns:xlink="http://www.w3.org/1999/xlink">
    <!-- Generator: Sketch 60.1 (88133) - https://sketch.com -->
    <title>核心优势icon5</title>
    <desc>Created with Sketch.</desc>
    <defs>
        <polygon id="path-1" points="0 0.3971 24.9997917 0.3971 24.9997917 19.4443857 0 19.4443857"></polygon>
    </defs>
    <g id="核心优势icon5" stroke="none" stroke-width="1" fill="none" fill-rule="evenodd">
        <g id="Group-38" transform="translate(3.000000, 4.000000)">
            <g id="Group-3" transform="translate(0.000000, 0.126867)">
                <mask id="mask-2" fill="white">
                    <use xlink:href="#path-1"></use>
                </mask>
                <g id="Clip-2"></g>
                <path d="M23.3586458,9.03157619 C22.8711458,9.03157619 22.4747917,8.63243333 22.4747917,8.14267143 C22.4747917,7.65238571 22.8711458,7.25324286 23.3586458,7.25324286 C23.8461458,7.25324286 24.2425,7.65238571 24.2425,8.14267143 C24.2425,8.63243333 23.8461458,9.03157619 23.3586458,9.03157619 L23.3586458,9.03157619 Z M20.7773958,18.6822429 L4.2221875,18.6822429 L2.33833333,9.6313381 C2.48625,9.56167143 2.620625,9.46948095 2.73989583,9.36052857 L6.22479167,11.7590524 C6.33416667,11.8339571 6.47479167,11.8460048 6.59614583,11.7920524 C6.71697917,11.7365286 6.79979167,11.6212905 6.81541667,11.4887667 L7.71645833,3.67876667 C7.851875,3.66252857 7.98208333,3.63319524 8.105,3.58605238 L12.1867708,9.62714762 C12.3279167,9.83562381 12.6721875,9.83562381 12.8133333,9.62714762 L16.8951042,3.58605238 C17.0185417,3.63319524 17.14875,3.66252857 17.2836458,3.67876667 L18.1846875,11.4887667 C18.2003125,11.6212905 18.283125,11.7365286 18.4039583,11.7920524 C18.5247917,11.8470524 18.6659375,11.8339571 18.7753125,11.7590524 L22.2602083,9.36052857 C22.3794792,9.46948095 22.5138542,9.56114762 22.6617708,9.6313381 L20.7773958,18.6822429 Z M1.64145833,9.03157619 C1.15447917,9.03157619 0.757604167,8.63243333 0.757604167,8.14267143 C0.757604167,7.65238571 1.15447917,7.25324286 1.64145833,7.25324286 C2.12895833,7.25324286 2.5253125,7.65238571 2.5253125,8.14267143 C2.5253125,8.63243333 2.12895833,9.03157619 1.64145833,9.03157619 L1.64145833,9.03157619 Z M6.639375,2.0471 C6.639375,1.55681429 7.03625,1.15871905 7.52375,1.15871905 C8.01072917,1.15871905 8.40708333,1.55681429 8.40708333,2.0471 C8.40708333,2.53738571 8.01072917,2.93600476 7.52375,2.93600476 C7.03625,2.93600476 6.639375,2.53738571 6.639375,2.0471 L6.639375,2.0471 Z M17.476875,1.15871905 C17.964375,1.15871905 18.3607292,1.55681429 18.3607292,2.0471 C18.3607292,2.53738571 17.964375,2.93600476 17.476875,2.93600476 C16.989375,2.93600476 16.5930208,2.53738571 16.5930208,2.0471 C16.5930208,1.55681429 16.989375,1.15871905 17.476875,1.15871905 L17.476875,1.15871905 Z M23.3586458,6.49162381 C22.4534375,6.49162381 21.7175,7.23229048 21.7175,8.14267143 C21.7175,8.35114762 21.7602083,8.54862381 21.8305208,8.73300476 L18.8654167,10.7737667 L18.0367708,3.5928619 C18.6654167,3.3618619 19.1180208,2.75895714 19.1180208,2.0471 C19.1180208,1.13724286 18.3820833,0.3971 17.476875,0.3971 C16.5716667,0.3971 15.8357292,1.13724286 15.8357292,2.0471 C15.8357292,2.47557619 16.0023958,2.86319524 16.2695833,3.15652857 L12.5003125,8.7351 L8.73104167,3.15652857 C8.99770833,2.86319524 9.16489583,2.47557619 9.16489583,2.0471 C9.16489583,1.13724286 8.4284375,0.3971 7.52375,0.3971 C6.61854167,0.3971 5.88208333,1.13724286 5.88208333,2.0471 C5.88208333,2.75895714 6.3346875,3.3618619 6.96385417,3.5928619 L6.13520833,10.7737667 L3.16958333,8.73300476 C3.24041667,8.54862381 3.283125,8.35114762 3.283125,8.14267143 C3.283125,7.23229048 2.54666667,6.49162381 1.64145833,6.49162381 C0.73625,6.49162381 -0.000208333333,7.23229048 -0.000208333333,8.14267143 C-0.000208333333,9.0378619 0.713333333,9.76438571 1.5971875,9.78848095 L3.5440625,19.1416238 C3.58052083,19.3176238 3.73520833,19.4443857 3.914375,19.4443857 L21.0857292,19.4443857 C21.2648958,19.4443857 21.4195833,19.3176238 21.4560417,19.1416238 L23.4029167,9.78848095 C24.2872917,9.76438571 24.9997917,9.0378619 24.9997917,8.14267143 C24.9997917,7.23229048 24.2638542,6.49162381 23.3586458,6.49162381 L23.3586458,6.49162381 Z" id="Fill-1" fill="#1F40E6" mask="url(#mask-2)"></path>
            </g>
            <path d="M22.0957292,20.8408619 L2.9040625,20.8408619 C2.69520833,20.8408619 2.52541667,21.0116238 2.52541667,21.2216714 C2.52541667,21.4322429 2.69520833,21.6030048 2.9040625,21.6030048 L22.0957292,21.6030048 C22.3051042,21.6030048 22.4748958,21.4322429 22.4748958,21.2216714 C22.4748958,21.0116238 22.3051042,20.8408619 22.0957292,20.8408619" id="Fill-4" fill="#1F40E6"></path>
            <path d="M11.4995312,16.7792952 C11.2922396,16.7792952 11.1203646,16.9469143 11.1203646,17.1611524 C11.1203646,17.368581 11.2922396,17.5414381 11.4995312,17.5414381 C11.7063021,17.5414381 11.8781771,17.368581 11.8781771,17.1611524 C11.8781771,16.9469143 11.7063021,16.7792952 11.4995312,16.7792952" id="Fill-6" fill="#1F40E6"></path>
            <path d="M13.4994271,16.7792952 C13.2926563,16.7792952 13.1207813,16.9469143 13.1207813,17.1611524 C13.1207813,17.368581 13.2926563,17.5414381 13.4994271,17.5414381 C13.7114063,17.5414381 13.8780729,17.368581 13.8780729,17.1611524 C13.8780729,16.9469143 13.7114063,16.7792952 13.4994271,16.7792952" id="Fill-8" fill="#1F40E6"></path>
            <path d="M9.49963542,16.7792952 C9.28765625,16.7792952 9.11578125,16.9469143 9.11578125,17.1611524 C9.11578125,17.368581 9.28765625,17.5414381 9.49963542,17.5414381 C9.70640625,17.5414381 9.87828125,17.368581 9.87828125,17.1611524 C9.87828125,16.9469143 9.70640625,16.7792952 9.49963542,16.7792952" id="Fill-10" fill="#1F40E6"></path>
            <path d="M7.494375,16.7792952 C7.28760417,16.7792952 7.11572917,16.9469143 7.11572917,17.1611524 C7.11572917,17.368581 7.28760417,17.5414381 7.494375,17.5414381 C7.706875,17.5414381 7.87354167,17.368581 7.87354167,17.1611524 C7.87354167,16.9469143 7.706875,16.7792952 7.494375,16.7792952" id="Fill-12" fill="#1F40E6"></path>
            <path d="M5.49442708,16.7792952 C5.28244792,16.7792952 5.11578125,16.9469143 5.11578125,17.1611524 C5.11578125,17.368581 5.28244792,17.5414381 5.49442708,17.5414381 C5.70171875,17.5414381 5.87307292,17.368581 5.87307292,17.1611524 C5.87307292,16.9469143 5.70171875,16.7792952 5.49442708,16.7792952" id="Fill-14" fill="#1F40E6"></path>
            <path d="M19.509375,16.7792952 C19.2973958,16.7792952 19.1255208,16.9469143 19.1255208,17.1611524 C19.1255208,17.368581 19.2973958,17.5414381 19.509375,17.5414381 C19.7166667,17.5414381 19.8833333,17.368581 19.8833333,17.1611524 C19.8833333,16.9469143 19.7166667,16.7792952 19.509375,16.7792952" id="Fill-16" fill="#1F40E6"></path>
            <path d="M15.5044792,16.7792952 C15.2925,16.7792952 15.1258333,16.9469143 15.1258333,17.1611524 C15.1258333,17.368581 15.2925,17.5414381 15.5044792,17.5414381 C15.71125,17.5414381 15.8836458,17.368581 15.8836458,17.1611524 C15.8836458,16.9469143 15.71125,16.7792952 15.5044792,16.7792952" id="Fill-18" fill="#1F40E6"></path>
            <path d="M17.5046354,16.7792952 C17.2973437,16.7792952 17.1254687,16.9469143 17.1254687,17.1611524 C17.1254687,17.368581 17.2973437,17.5414381 17.5046354,17.5414381 C17.7166146,17.5414381 17.8832812,17.368581 17.8832812,17.1611524 C17.8832812,16.9469143 17.7166146,16.7792952 17.5046354,16.7792952" id="Fill-20" fill="#1F40E6"></path>
            <path d="M13.5500521,14.7423571 C13.3380729,14.7423571 13.1708854,14.9152143 13.1708854,15.1289286 C13.1708854,15.3374048 13.3380729,15.5045 13.5500521,15.5045 C13.7568229,15.5045 13.9286979,15.3374048 13.9286979,15.1289286 C13.9286979,14.9152143 13.7568229,14.7423571 13.5500521,14.7423571" id="Fill-22" fill="#1F40E6"></path>
            <path d="M17.7419271,14.7423571 C17.5299479,14.7423571 17.3627604,14.9152143 17.3627604,15.1289286 C17.3627604,15.3374048 17.5299479,15.5045 17.7419271,15.5045 C17.9486979,15.5045 18.1205729,15.3374048 18.1205729,15.1289286 C18.1205729,14.9152143 17.9486979,14.7423571 17.7419271,14.7423571" id="Fill-24" fill="#1F40E6"></path>
            <path d="M5.54505208,15.1290857 C5.54505208,14.9153714 5.37317708,14.7425143 5.16588542,14.7425143 C4.95390625,14.7425143 4.78723958,14.9153714 4.78723958,15.1290857 C4.78723958,15.3370381 4.95390625,15.5046571 5.16588542,15.5046571 C5.37317708,15.5046571 5.54505208,15.3370381 5.54505208,15.1290857" id="Fill-26" fill="#1F40E6"></path>
            <path d="M19.8379688,14.7423571 C19.6254688,14.7423571 19.4593229,14.9152143 19.4593229,15.1289286 C19.4593229,15.3374048 19.6254688,15.5045 19.8379688,15.5045 C20.0447396,15.5045 20.2166146,15.3374048 20.2166146,15.1289286 C20.2166146,14.9152143 20.0447396,14.7423571 19.8379688,14.7423571" id="Fill-28" fill="#1F40E6"></path>
            <path d="M7.64083333,15.1290857 C7.64083333,14.9153714 7.46895833,14.7425143 7.2621875,14.7425143 C7.05020833,14.7425143 6.88302083,14.9153714 6.88302083,15.1290857 C6.88302083,15.3370381 7.05020833,15.5046571 7.2621875,15.5046571 C7.46895833,15.5046571 7.64083333,15.3370381 7.64083333,15.1290857" id="Fill-30" fill="#1F40E6"></path>
            <path d="M9.73713542,15.1290857 C9.73713542,14.9153714 9.56526042,14.7425143 9.35796875,14.7425143 C9.14598958,14.7425143 8.97932292,14.9153714 8.97932292,15.1290857 C8.97932292,15.3370381 9.14598958,15.5046571 9.35796875,15.5046571 C9.56526042,15.5046571 9.73713542,15.3370381 9.73713542,15.1290857" id="Fill-32" fill="#1F40E6"></path>
            <path d="M11.4540104,15.5045524 C11.6607812,15.5045524 11.8331771,15.3374571 11.8331771,15.128981 C11.8331771,14.9152667 11.6607812,14.7424095 11.4540104,14.7424095 C11.2420312,14.7424095 11.0753646,14.9152667 11.0753646,15.128981 C11.0753646,15.3374571 11.2420312,15.5045524 11.4540104,15.5045524" id="Fill-34" fill="#1F40E6"></path>
            <path d="M15.6410417,14.7423571 C15.43375,14.7423571 15.2670833,14.9152143 15.2670833,15.1289286 C15.2670833,15.3374048 15.43375,15.5045 15.6410417,15.5045 C15.8530208,15.5045 16.0248958,15.3374048 16.0248958,15.1289286 C16.0248958,14.9152143 15.8530208,14.7423571 15.6410417,14.7423571" id="Fill-36" fill="#1F40E6"></path>
        </g>
    </g>
</svg>