<?xml version="1.0" encoding="UTF-8"?>
<svg width="30px" height="30px" viewBox="0 0 30 30" version="1.1" xmlns="http://www.w3.org/2000/svg" xmlns:xlink="http://www.w3.org/1999/xlink">
    <!-- Generator: Sketch 60.1 (88133) - https://sketch.com -->
    <title>核心优势icon6</title>
    <desc>Created with Sketch.</desc>
    <defs>
        <polygon id="path-1" points="0.00011627907 5.83333333e-05 24.5239535 5.83333333e-05 24.5239535 28 0.00011627907 28"></polygon>
    </defs>
    <g id="核心优势icon6" stroke="none" stroke-width="1" fill="none" fill-rule="evenodd">
        <g id="Group-16" transform="translate(3.000000, 1.000000)">
            <path d="M12.334186,13.6938083 C12.1016279,13.6938083 11.9115116,13.883975 11.9115116,14.1178917 L11.9115116,14.6498917 C11.9115116,14.883225 12.1016279,15.0733917 12.334186,15.0733917 C12.567907,15.0733917 12.7580233,14.883225 12.7580233,14.6498917 L12.7580233,14.1178917 C12.7580233,13.883975 12.567907,13.6938083 12.334186,13.6938083" id="Fill-1" fill="#1F40E6"></path>
            <path d="M12.334186,11.5677917 C12.1016279,11.5677917 11.9115116,11.7579583 11.9115116,11.9924583 L11.9115116,12.523875 C11.9115116,12.7577917 12.1016279,12.947375 12.334186,12.947375 C12.567907,12.947375 12.7580233,12.7577917 12.7580233,12.523875 L12.7580233,11.9924583 C12.7580233,11.7579583 12.567907,11.5677917 12.334186,11.5677917" id="Fill-3" fill="#1F40E6"></path>
            <path d="M12.334186,15.8197667 C12.1016279,15.8197667 11.9115116,16.00935 11.9115116,16.24385 L11.9115116,16.5261833 C11.9115116,16.7606833 12.1016279,16.9502667 12.334186,16.9502667 C12.567907,16.9502667 12.7580233,16.7606833 12.7580233,16.5261833 L12.7580233,16.24385 C12.7580233,16.00935 12.567907,15.8197667 12.334186,15.8197667" id="Fill-5" fill="#1F40E6"></path>
            <path d="M12.3387209,7.91058333 C11.485814,7.91058333 10.7933721,7.21466667 10.7933721,6.3595 C10.7933721,5.50433333 11.485814,4.80958333 12.3387209,4.80958333 C13.1904651,4.80958333 13.8840698,5.50433333 13.8840698,6.3595 C13.8840698,7.21466667 13.1904651,7.91058333 12.3387209,7.91058333 M12.3387209,3.96083333 C11.0189535,3.96083333 9.94744186,5.0365 9.94744186,6.3595 C9.94744186,7.6825 11.0189535,8.75875 12.3387209,8.75875 C13.6573256,8.75875 14.7288372,7.6825 14.7288372,6.3595 C14.7288372,5.0365 13.6573256,3.96083333 12.3387209,3.96083333" id="Fill-7" fill="#1F40E6"></path>
            <path d="M7.8805814,5.21039167 C5.41662791,6.745725 3.94569767,9.39755833 3.94569767,12.303725 C3.94569767,13.5975583 4.23348837,14.837725 4.79860465,15.9886417 C4.87244186,16.137975 5.02244186,16.2248917 5.1794186,16.2248917 C5.24162791,16.2248917 5.305,16.2108917 5.36546512,16.1811417 C5.57418605,16.0773083 5.66081395,15.822975 5.55732558,15.612975 C5.04976744,14.5798917 4.7922093,13.465725 4.7922093,12.303725 C4.7922093,9.69330833 6.11255814,7.310975 8.32593023,5.93139167 C8.52418605,5.80714167 8.58581395,5.54639167 8.46197674,5.34689167 C8.33930233,5.14855833 8.0794186,5.08730833 7.8805814,5.21039167" id="Fill-9" fill="#1F40E6"></path>
            <path d="M16.6424419,5.21039167 C16.4436047,5.086725 16.1837209,5.14855833 16.0610465,5.34689167 C15.9372093,5.54639167 15.9976744,5.80714167 16.1959302,5.93139167 C18.4104651,7.31155833 19.7319767,9.69389167 19.7319767,12.303725 C19.7319767,13.4651417 19.4744186,14.5793083 18.9656977,15.6135583 C18.8633721,15.822975 18.9488372,16.0778917 19.1587209,16.1811417 C19.219186,16.2108917 19.2813953,16.2248917 19.3447674,16.2248917 C19.5005814,16.2248917 19.6505814,16.137975 19.7244186,15.9886417 C20.2906977,14.835975 20.5773256,13.5963917 20.5773256,12.303725 C20.5773256,9.39755833 19.1063953,6.745725 16.6424419,5.21039167" id="Fill-11" fill="#1F40E6"></path>
            <g id="Group-15">
                <mask id="mask-2" fill="white">
                    <use xlink:href="#path-1"></use>
                </mask>
                <g id="Clip-14"></g>
                <path d="M15.6181395,22.052975 L15.6181395,19.1911417 C15.8303488,19.2990583 16.0663953,19.3673083 16.3198837,19.3673083 C17.1727907,19.3673083 17.8663953,18.6713917 17.8663953,17.8156417 L17.8663953,12.3696417 C17.8663953,10.8920583 16.6687209,9.69155833 15.1954651,9.69155833 L9.4727907,9.69155833 C7.99953488,9.69155833 6.80186047,10.8920583 6.80186047,12.3696417 L6.80186047,17.8156417 C6.80186047,18.6713917 7.49546512,19.3673083 8.34837209,19.3673083 C8.60302326,19.3673083 8.83906977,19.2990583 9.05011628,19.1911417 L9.05011628,22.0891417 C5.07569767,20.7748917 2.16872093,17.105725 1.99081395,12.727225 L2.67744186,12.727225 C2.91174419,12.727225 3.10011628,12.5376417 3.10011628,12.303725 C3.10011628,12.0686417 2.91174419,11.8790583 2.67744186,11.8790583 L1.99372093,11.8790583 C2.21290698,6.50014167 6.54430233,2.17880833 11.9152326,1.997975 L11.9152326,2.687475 C11.9152326,2.92139167 12.1047674,3.11155833 12.3384884,3.11155833 C12.5716279,3.11155833 12.7611628,2.92139167 12.7611628,2.687475 L12.7611628,2.00555833 C18.0605814,2.26280833 22.3123256,6.55205833 22.529186,11.8790583 L21.8454651,11.8790583 C21.612907,11.8790583 21.4227907,12.0686417 21.4227907,12.303725 C21.4227907,12.5376417 21.612907,12.727225 21.8454651,12.727225 L22.5338372,12.727225 C22.3576744,17.0538083 19.5187209,20.6973083 15.6181395,22.052975 L15.6181395,22.052975 Z M15.1954651,12.336975 C14.9617442,12.336975 14.7733721,12.5271417 14.7733721,12.7610583 L14.7733721,17.6581417 L9.89604651,17.6581417 L9.89604651,12.7610583 C9.89604651,12.5271417 9.70651163,12.336975 9.4727907,12.336975 C9.23965116,12.336975 9.05011628,12.5271417 9.05011628,12.7610583 L9.05011628,17.8156417 C9.05011628,18.202975 8.7355814,18.5185583 8.34837209,18.5185583 C7.96232558,18.5185583 7.6477907,18.202975 7.6477907,17.8156417 L7.6477907,12.3696417 C7.6477907,11.360475 8.46639535,10.539725 9.4727907,10.539725 L11.9402326,10.539725 C11.9977907,10.702475 12.1512791,10.8226417 12.3344186,10.8226417 C12.5181395,10.8226417 12.6704651,10.702475 12.7280233,10.539725 L15.1954651,10.539725 C16.2018605,10.539725 17.0216279,11.360475 17.0216279,12.3696417 L17.0216279,17.8156417 C17.0216279,18.202975 16.7059302,18.5185583 16.3198837,18.5185583 C15.9338372,18.5185583 15.6181395,18.202975 15.6181395,17.8156417 L15.6181395,12.7610583 C15.6181395,12.5271417 15.4286047,12.336975 15.1954651,12.336975 L15.1954651,12.336975 Z M14.7733721,26.156725 C14.7733721,26.706225 14.3216279,27.1518917 13.7646512,27.1518917 C13.2094186,27.1518917 12.7576744,26.706225 12.7576744,26.156725 L12.7576744,19.972225 C12.7576744,19.737725 12.5681395,19.5475583 12.3344186,19.5475583 C12.1012791,19.5475583 11.9117442,19.737725 11.9117442,19.972225 L11.9117442,26.156725 C11.9117442,26.706225 11.46,27.1518917 10.9036047,27.1518917 C10.3483721,27.1518917 9.89604651,26.706225 9.89604651,26.156725 L9.89604651,18.5063083 L14.7733721,18.5063083 L14.7733721,26.156725 Z M24.1006977,11.8790583 L23.3751163,11.8790583 C23.1559302,6.084225 18.5274419,1.415225 12.7611628,1.15739167 L12.7611628,0.424725 C12.7611628,0.190225 12.5716279,5.83333333e-05 12.3384884,5.83333333e-05 C12.1047674,5.83333333e-05 11.9152326,0.190225 11.9152326,0.424725 L11.9152326,1.14980833 C6.07860465,1.331225 1.36930233,6.03289167 1.1477907,11.8790583 L0.422209302,11.8790583 C0.188488372,11.8790583 0.00011627907,12.0686417 0.00011627907,12.303725 C0.00011627907,12.5376417 0.188488372,12.727225 0.422209302,12.727225 L1.14430233,12.727225 C1.32744186,17.5758917 4.60476744,21.6271417 9.05011628,22.973475 L9.05011628,26.156725 C9.05011628,27.173475 9.88151163,28.0000583 10.9036047,28.0000583 C11.479186,28.0000583 11.9948837,27.7381417 12.3344186,27.327475 C12.6751163,27.7381417 13.1890698,28.0000583 13.7646512,28.0000583 C14.7867442,28.0000583 15.6181395,27.173475 15.6181395,26.156725 L15.6181395,22.9355583 C19.9902326,21.5425583 23.1977907,17.523975 23.3786047,12.727225 L24.1006977,12.727225 C24.3344186,12.727225 24.5239535,12.5376417 24.5239535,12.303725 C24.5239535,12.0686417 24.3344186,11.8790583 24.1006977,11.8790583 L24.1006977,11.8790583 Z" id="Fill-13" fill="#1F40E6" mask="url(#mask-2)"></path>
            </g>
        </g>
    </g>
</svg>