<?xml version="1.0" encoding="UTF-8"?>
<svg width="30px" height="30px" viewBox="0 0 30 30" version="1.1" xmlns="http://www.w3.org/2000/svg" xmlns:xlink="http://www.w3.org/1999/xlink">
    <!-- Generator: Sketch 60.1 (88133) - https://sketch.com -->
    <title>核心优势icon1</title>
    <desc>Created with Sketch.</desc>
    <defs>
        <polygon id="path-1" points="0 0.000153333333 24.9994792 0.000153333333 24.9994792 22.5507844 0 22.5507844"></polygon>
    </defs>
    <g id="核心优势icon1" stroke="none" stroke-width="1" fill="none" fill-rule="evenodd">
        <g id="Group-3" transform="translate(3.000000, 4.000000)">
            <mask id="mask-2" fill="white">
                <use xlink:href="#path-1"></use>
            </mask>
            <g id="Clip-2"></g>
            <path d="M24.2426042,6.31902 L14.7316667,6.31902 C14.6405208,6.31902 14.5525,6.35070889 14.48375,6.40999778 L11.8696875,8.64202 L11.8696875,0.74382 L24.2426042,0.74382 L24.2426042,6.31902 Z M22.2030208,10.9031756 L17.8097917,10.9031756 C17.7577083,9.54055333 17.4186458,8.24948667 16.9301042,7.06166444 L21.3014583,7.06166444 C21.8332292,8.24488667 22.1540625,9.53850889 22.2030208,10.9031756 L22.2030208,10.9031756 Z M19.7972917,17.9329978 C18.8342708,17.2332867 17.75875,16.6572644 16.6144792,16.2217978 C17.2738542,14.8392422 17.7467708,13.2931311 17.8097917,11.6468422 L22.2030208,11.6468422 C22.118125,14.0255533 21.2363542,16.2069756 19.7972917,17.9329978 L19.7972917,17.9329978 Z M12.5170833,21.7561089 C13.4665625,20.8447978 15.0780208,19.1157089 16.2764583,16.8887978 C17.3582292,17.2951311 18.3754167,17.8338422 19.2884375,18.4890867 C17.5509375,20.2968867 15.1780208,21.5066867 12.5170833,21.7561089 L12.5170833,21.7561089 Z M11.8686458,21.32882 L11.8686458,16.0173533 C13.1123958,16.0531311 14.3530208,16.2637089 15.5384375,16.6332422 C14.3379167,18.8141533 12.7358333,20.5013311 11.8686458,21.32882 L11.8686458,21.32882 Z M11.8686458,11.6468422 L17.0436458,11.6468422 C16.9780208,13.1863089 16.5228125,14.6465533 15.8842708,15.9601089 C14.59,15.5440644 13.2295833,15.3115089 11.8686458,15.2736867 L11.8686458,11.6468422 Z M11.1108333,15.2736867 C9.749375,15.3115089 8.38947917,15.5450867 7.09416667,15.9601089 C6.45666667,14.6475756 6.00197917,13.1873311 5.93635417,11.6468422 L11.1108333,11.6468422 L11.1108333,15.2736867 Z M11.1108333,21.3298422 C10.2436458,20.5033756 8.64052083,18.8161978 7.43947917,16.6342644 C8.6259375,16.2637089 9.8665625,16.0531311 11.1108333,16.0173533 L11.1108333,21.3298422 Z M3.6915625,18.4890867 C4.6040625,17.8338422 5.62177083,17.2951311 6.70302083,16.8887978 C7.90145833,19.1157089 9.5134375,20.8447978 10.4623958,21.7561089 C7.8025,21.5066867 5.42854167,20.2968867 3.6915625,18.4890867 L3.6915625,18.4890867 Z M3.1821875,17.9329978 C1.74416667,16.2079978 0.861875,14.0255533 0.776458333,11.6468422 L5.1696875,11.6468422 C5.23270833,13.2931311 5.705625,14.8392422 6.365,16.2217978 C5.22125,16.6582867 4.14572917,17.2332867 3.1821875,17.9329978 L3.1821875,17.9329978 Z M3.1759375,4.61293111 C4.1415625,5.31775333 5.22125,5.90195333 6.374375,6.33997556 C5.71447917,7.72048667 5.23895833,9.26608667 5.174375,10.9031756 L0.773333333,10.9031756 C0.857708333,8.54133111 1.73010417,6.35173111 3.1759375,4.61293111 L3.1759375,4.61293111 Z M24.6217708,0.000153333333 L11.4910417,0.000153333333 C11.2816667,0.000153333333 11.1123958,0.166775556 11.1123958,0.37122 L11.1123958,9.45775333 C11.1123958,9.60342 11.1988542,9.73630889 11.3342708,9.79610889 C11.3842708,9.81808667 11.4379167,9.82984222 11.4910417,9.82984222 C11.5801042,9.82984222 11.6691667,9.79815333 11.7394792,9.73784222 L14.8738542,7.06166444 L16.0957292,7.06166444 C16.62125,8.24948667 16.9946875,9.54362 17.0519792,10.9031756 L5.9321875,10.9031756 C5.99729167,9.36370889 6.45510417,7.90346444 7.08791667,6.59553111 C8.02020833,6.89504222 8.9884375,7.10357556 9.96864583,7.21039778 C9.98322917,7.21244222 9.99677083,7.21244222 10.0108333,7.21244222 C10.2014583,7.21244222 10.3655208,7.07188667 10.386875,6.88124222 C10.4097917,6.67730889 10.2597917,6.49382 10.0519792,6.47184222 C9.161875,6.37473111 8.28270833,6.18715333 7.43479167,5.92290889 C8.34364583,4.26435333 9.48166667,2.89815333 10.3275,2.00268667 C10.4702083,1.85190889 10.4608333,1.61730889 10.3077083,1.47726444 C10.1545833,1.33773111 9.91447917,1.34642 9.7728125,1.49719778 C8.8775,2.44377556 7.67072917,3.89839778 6.71447917,5.67195333 C5.61864583,5.26102 4.59260417,4.71259778 3.67541667,4.05019778 C5.04989583,2.61755333 6.83947917,1.55342 8.89885417,1.05202 C9.10197917,1.00244222 9.22541667,0.801575556 9.17489583,0.601731111 C9.12541667,0.40342 8.92229167,0.279731111 8.71604167,0.330331111 C3.58427083,1.57948667 -0.000104166667,6.07930889 -0.000104166667,11.2752644 C-0.000104166667,17.49242 5.15458333,22.5508867 11.49,22.5508867 C17.8254167,22.5508867 22.9801042,17.49242 22.9801042,11.2752644 C22.9801042,9.78282 22.6722917,8.36448667 22.130625,7.06166444 L24.6217708,7.06166444 C24.830625,7.06166444 24.9998958,6.89504222 24.9998958,6.69059778 L24.9998958,0.37122 C24.9998958,0.166775556 24.830625,0.000153333333 24.6217708,0.000153333333 L24.6217708,0.000153333333 Z" id="Fill-1" fill="#1F40E6" mask="url(#mask-2)"></path>
        </g>
    </g>
</svg>