<?xml version="1.0" encoding="UTF-8"?>
<svg width="30px" height="30px" viewBox="0 0 30 30" version="1.1" xmlns="http://www.w3.org/2000/svg" xmlns:xlink="http://www.w3.org/1999/xlink">
    <!-- Generator: Sketch 60.1 (88133) - https://sketch.com -->
    <title>核心优势icon4</title>
    <desc>Created with Sketch.</desc>
    <defs>
        <polygon id="path-1" points="0.0316666667 0.402123676 5.83270833 0.402123676 5.83270833 4.7755102 0.0316666667 4.7755102"></polygon>
        <polygon id="path-3" points="0.449270833 0.402123676 6.25 0.402123676 6.25 4.7755102 0.449270833 4.7755102"></polygon>
    </defs>
    <g id="核心优势icon4" stroke="none" stroke-width="1" fill="none" fill-rule="evenodd">
        <g id="Group-29" transform="translate(3.000000, 2.000000)">
            <path d="M6.46338542,3.02226122 C6.53005208,3.02226122 6.59880208,3.00422041 6.66026042,2.96548571 C9.66546875,1.08764898 13.3717188,0.772465306 16.6435938,2.09156735 L16.3092188,2.77181224 L18.5685938,2.6354449 L17.3238021,0.708261224 L16.9836979,1.39911837 C13.4758854,-0.0383102041 9.49307292,0.290669388 6.26494792,2.30646531 C6.08682292,2.41842449 6.03109375,2.65613878 6.13994792,2.83707755 C6.21182292,2.95699592 6.33578125,3.02226122 6.46338542,3.02226122" id="Fill-1" fill="#1F40E6"></path>
            <path d="M22.7653646,14.9346122 L23.2695313,17.1849388 L24.9283854,15.6148571 L24.2044271,15.3872245 C24.6908854,13.1469796 24.5622396,10.8292653 23.8127604,8.6622449 C23.7434896,8.46114286 23.5263021,8.35661224 23.3304688,8.42612245 C23.1335938,8.49722449 23.0299479,8.71795918 23.0997396,8.91853061 C23.7950521,10.9290204 23.9195313,13.0790612 23.4783854,15.1585306 L22.7653646,14.9346122 Z" id="Fill-3" fill="#1F40E6"></path>
            <path d="M1.31708333,17.0834857 C1.374375,17.2378939 1.518125,17.3323429 1.67072917,17.3323429 C1.71552083,17.3323429 1.76083333,17.3238531 1.80510417,17.3074041 C2.00041667,17.2315265 2.09885417,17.0086694 2.024375,16.8091592 C1.30458333,14.8766694 1.11760417,12.7913633 1.46760417,10.7543429 L2.18739583,10.9501388 L1.59885417,8.72103673 L0.000416666667,10.3553224 L0.73375,10.5553633 C0.345208333,12.7494449 0.540520833,14.9992408 1.31708333,17.0834857" id="Fill-5" fill="#1F40E6"></path>
            <g id="Group-9" transform="translate(0.000000, 20.693878)">
                <mask id="mask-2" fill="white">
                    <use xlink:href="#path-1"></use>
                </mask>
                <g id="Clip-8"></g>
                <path d="M4.78895833,0.489383673 C4.62697917,0.625220408 4.6040625,0.867710204 4.73583333,1.03273061 C4.95822917,1.3097102 5.0759375,1.64505714 5.0759375,2.0026898 L5.0759375,4.00415918 L0.7884375,4.00415918 L0.7884375,2.0026898 C0.7884375,1.64505714 0.906145833,1.3097102 1.12854167,1.03273061 C1.26135417,0.867710204 1.23739583,0.625220408 1.07541667,0.489383673 C0.915,0.355138776 0.676458333,0.379016327 0.543645833,0.543506122 C0.213958333,0.953669388 0.0316666667,1.47260816 0.0316666667,2.0026898 L0.0316666667,4.3904449 C0.0316666667,4.60322041 0.2009375,4.77566939 0.4103125,4.77566939 L5.4540625,4.77566939 C5.6634375,4.77566939 5.83270833,4.60322041 5.83270833,4.3904449 L5.83270833,2.0026898 C5.83270833,1.47260816 5.6509375,0.953669388 5.32125,0.543506122 C5.1884375,0.378485714 4.94989583,0.354608163 4.78895833,0.489383673" id="Fill-7" fill="#1F40E6" mask="url(#mask-2)"></path>
            </g>
            <path d="M3.81494792,19.6815755 C3.81494792,20.1782286 3.41859375,20.5820245 2.93265625,20.5820245 C2.44567708,20.5820245 2.04932292,20.1782286 2.04932292,19.6815755 C2.04932292,19.1849224 2.44567708,18.7811265 2.93265625,18.7811265 C3.41859375,18.7811265 3.81494792,19.1849224 3.81494792,19.6815755 M1.29307292,19.6815755 C1.29307292,20.603249 2.02796875,21.3535347 2.93265625,21.3535347 C3.83630208,21.3535347 4.57171875,20.603249 4.57171875,19.6815755 C4.57171875,18.7593714 3.83630208,18.0085551 2.93265625,18.0085551 C2.02796875,18.0085551 1.29307292,18.7593714 1.29307292,19.6815755" id="Fill-10" fill="#1F40E6"></path>
            <g id="Group-14" transform="translate(18.750000, 20.693878)">
                <mask id="mask-4" fill="white">
                    <use xlink:href="#path-3"></use>
                </mask>
                <g id="Clip-13"></g>
                <path d="M5.2065625,0.489383673 C5.04458333,0.625220408 5.02166667,0.867710204 5.1534375,1.03273061 C5.37583333,1.3097102 5.4940625,1.64505714 5.4940625,2.0026898 L5.4940625,4.00415918 L1.20604167,4.00415918 L1.20604167,2.0026898 C1.20604167,1.64505714 1.32427083,1.3097102 1.54614583,1.03273061 C1.67895833,0.867710204 1.655,0.625220408 1.49354167,0.489383673 C1.33260417,0.355138776 1.0940625,0.379016327 0.96125,0.543506122 C0.6315625,0.953669388 0.449270833,1.47260816 0.449270833,2.0026898 L0.449270833,4.3904449 C0.449270833,4.60322041 0.6190625,4.77566939 0.827916667,4.77566939 L5.87166667,4.77566939 C6.08104167,4.77566939 6.2503125,4.60322041 6.2503125,4.3904449 L6.2503125,2.0026898 C6.2503125,1.47260816 6.06854167,0.953669388 5.73885417,0.543506122 C5.60604167,0.378485714 5.36802083,0.354608163 5.2065625,0.489383673" id="Fill-12" fill="#1F40E6" mask="url(#mask-4)"></path>
            </g>
            <path d="M22.9825,19.6815755 C22.9825,20.1782286 22.5866667,20.5820245 22.1002083,20.5820245 C21.6132292,20.5820245 21.216875,20.1782286 21.216875,19.6815755 C21.216875,19.1849224 21.6132292,18.7811265 22.1002083,18.7811265 C22.5866667,18.7811265 22.9825,19.1849224 22.9825,19.6815755 M20.460625,19.6815755 C20.460625,20.603249 21.1960417,21.3535347 22.1002083,21.3535347 C23.0038542,21.3535347 23.7392708,20.603249 23.7392708,19.6815755 C23.7392708,18.7593714 23.0038542,18.0085551 22.1002083,18.0085551 C21.1960417,18.0085551 20.460625,18.7593714 20.460625,19.6815755" id="Fill-15" fill="#1F40E6"></path>
            <path d="M0.410208333,7.46146939 L5.45447917,7.46146939 C5.66333333,7.46146939 5.83260417,7.28902041 5.83260417,7.07518367 L5.83260417,4.6884898 C5.83260417,4.15681633 5.65135417,3.63946939 5.32166667,3.22930612 C5.18833333,3.0637551 4.94979167,3.04093878 4.78885417,3.17571429 C4.62739583,3.3104898 4.60395833,3.55404082 4.73625,3.71853061 C4.958125,3.9955102 5.07583333,4.32979592 5.07583333,4.6884898 L5.07583333,6.68995918 L0.788854167,6.68995918 L0.788854167,4.6884898 C0.788854167,4.32979592 0.906041667,3.9955102 1.1284375,3.71853061 C1.26125,3.55404082 1.23729167,3.3104898 1.0753125,3.17571429 C0.914895833,3.04093878 0.676354167,3.06428571 0.543541667,3.22930612 C0.213854167,3.63946939 0.0315625,4.15681633 0.0315625,4.6884898 L0.0315625,7.07518367 C0.0315625,7.28902041 0.201354167,7.46146939 0.410208333,7.46146939" id="Fill-17" fill="#1F40E6"></path>
            <path d="M2.93244792,0.772306122 C3.41890625,0.772306122 3.81473958,1.17663265 3.81473958,1.6727551 C3.81473958,2.16940816 3.41890625,2.57373469 2.93244792,2.57373469 C2.44546875,2.57373469 2.04963542,2.16940816 2.04963542,1.6727551 C2.04963542,1.17663265 2.44546875,0.772306122 2.93244792,0.772306122 M2.93244792,3.3452449 C3.83609375,3.3452449 4.57151042,2.59495918 4.57151042,1.6727551 C4.57151042,0.75055102 3.83609375,0.000265306122 2.93244792,0.000265306122 C2.02828125,0.000265306122 1.29338542,0.75055102 1.29338542,1.6727551 C1.29338542,2.59495918 2.02828125,3.3452449 2.93244792,3.3452449" id="Fill-19" fill="#1F40E6"></path>
            <path d="M24.4890625,3.22951837 C24.3557292,3.06396735 24.1177083,3.04115102 23.9567708,3.17539592 C23.7947917,3.31017143 23.7713542,3.55372245 23.9036458,3.71874286 C24.1260417,3.99519184 24.24375,4.32947755 24.24375,4.68870204 L24.24375,6.68964082 L19.95625,6.68964082 L19.95625,4.68870204 C19.95625,4.32947755 20.0739583,3.99519184 20.2958333,3.71874286 C20.4286458,3.55372245 20.4046875,3.31017143 20.24375,3.17539592 C20.0822917,3.04115102 19.84375,3.06396735 19.7109375,3.22951837 C19.38125,3.63915102 19.1994792,4.15702857 19.1994792,4.68870204 L19.1994792,7.07539592 C19.1994792,7.28870204 19.3692708,7.46168163 19.5776042,7.46168163 L24.621875,7.46168163 C24.8307292,7.46168163 25,7.28870204 25,7.07539592 L25,4.68870204 C25,4.15702857 24.81875,3.63915102 24.4890625,3.22951837" id="Fill-21" fill="#1F40E6"></path>
            <path d="M22.1000521,0.772306122 C22.5870313,0.772306122 22.9823438,1.17663265 22.9823438,1.6727551 C22.9823438,2.16940816 22.5870313,2.57373469 22.1000521,2.57373469 C21.6130729,2.57373469 21.2172396,2.16940816 21.2172396,1.6727551 C21.2172396,1.17663265 21.6130729,0.772306122 22.1000521,0.772306122 M22.1000521,3.3452449 C23.0036979,3.3452449 23.7391146,2.59495918 23.7391146,1.6727551 C23.7391146,0.75055102 23.0036979,0.000265306122 22.1000521,0.000265306122 C21.1964063,0.000265306122 20.4609896,0.75055102 20.4609896,1.6727551 C20.4609896,2.59495918 21.1964063,3.3452449 22.1000521,3.3452449" id="Fill-23" fill="#1F40E6"></path>
            <path d="M12.5159896,7.54642041 C12.3076563,7.54642041 12.1373437,7.71993061 12.1373437,7.93323673 C12.1373437,8.14601224 12.3076563,8.31899184 12.5159896,8.31899184 C14.6623437,8.31899184 16.4607813,9.88535918 16.7925521,12.0444204 C16.8222396,12.2343796 16.9826562,12.3702163 17.1665104,12.3702163 C17.1857812,12.3702163 17.2055729,12.3691551 17.2253646,12.3659714 C17.4316146,12.3330735 17.5727604,12.1346245 17.5404687,11.9239714 C17.1498437,9.38817551 15.0373437,7.54642041 12.5159896,7.54642041" id="Fill-25" fill="#1F40E6"></path>
            <path d="M14.4076042,15.9507347 L14.4076042,15.1792245 C14.4076042,14.7536735 14.7466667,14.4077143 15.164375,14.4077143 C15.5815625,14.4077143 15.920625,14.7536735 15.920625,15.1792245 C15.920625,15.6047755 15.5815625,15.9507347 15.164375,15.9507347 L14.4076042,15.9507347 Z M17.2992708,17.4974694 C16.6279167,18.1978776 16.2185417,19.0972653 16.1169792,20.0666939 L14.4076042,20.0666939 L14.4076042,16.7227755 L15.164375,16.7227755 C15.99875,16.7227755 16.6773958,16.0303265 16.6773958,15.1792245 C16.6773958,14.3270612 15.99875,13.6356735 15.164375,13.6356735 C14.33,13.6356735 13.6513542,14.3270612 13.6513542,15.1792245 L13.6513542,15.9507347 L11.3810417,15.9507347 L11.3810417,15.1792245 C11.3810417,14.3270612 10.7023958,13.6356735 9.86802083,13.6356735 C9.03364583,13.6356735 8.355,14.3270612 8.355,15.1792245 C8.355,16.0303265 9.03364583,16.7227755 9.86802083,16.7227755 L10.6242708,16.7227755 L10.6242708,20.0666939 L8.9659375,20.0666939 C8.85291667,19.1073469 8.43989583,18.2212245 7.76854167,17.530898 C6.52010417,16.2457551 5.83260417,14.5424898 5.83260417,12.7346939 C5.83260417,8.97583673 8.83104167,5.91791837 12.5159375,5.91791837 C16.2008333,5.91791837 19.1992708,8.97583673 19.1992708,12.7346939 C19.1992708,14.5249796 18.5247917,16.2160408 17.2992708,17.4974694 L17.2992708,17.4974694 Z M11.3810417,20.0666939 L13.6508333,20.0666939 L13.6508333,16.7227755 L11.3810417,16.7227755 L11.3810417,20.0666939 Z M10.6242708,15.9507347 L9.86802083,15.9507347 C9.4503125,15.9507347 9.11125,15.6047755 9.11125,15.1792245 C9.11125,14.7536735 9.4503125,14.4077143 9.86802083,14.4077143 C10.2852083,14.4077143 10.6242708,14.7536735 10.6242708,15.1792245 L10.6242708,15.9507347 Z M16.0763542,22.3822857 L9.0003125,22.3684898 L9.0003125,20.8392653 L16.0883333,20.8392653 L16.0763542,22.3822857 Z M14.9414583,23.5400816 C14.9414583,24.1789388 14.4326042,24.6978776 13.8070833,24.6978776 L11.2846875,24.6978776 C10.6591667,24.6978776 10.1497917,24.1789388 10.1497917,23.5400816 L10.1497917,23.1543265 L14.9414583,23.1543265 L14.9414583,23.5400816 Z M12.5159375,5.14587755 C8.41385417,5.14587755 5.07583333,8.55028571 5.07583333,12.7346939 C5.07583333,14.7473061 5.84145833,16.6431837 7.2315625,18.0737143 C7.8846875,18.746 8.2440625,19.6422041 8.2440625,20.5999592 L8.2440625,22.3684898 C8.2440625,22.8014694 8.589375,23.1543265 9.01489583,23.1543265 L9.39302083,23.1543265 L9.39302083,23.5400816 C9.39302083,24.6044898 10.2419792,25.4693878 11.2846875,25.4693878 L13.8070833,25.4693878 C14.8497917,25.4693878 15.6982292,24.6044898 15.6982292,23.5400816 L15.6982292,23.1543265 L16.0763542,23.1543265 C16.5013542,23.1543265 16.8471875,22.8014694 16.8471875,22.3684898 L16.8471875,20.5415918 C16.8471875,19.5955102 17.1992708,18.7046122 17.8404167,18.037102 C19.205,16.6108163 19.9560417,14.7271429 19.9560417,12.7346939 C19.9560417,8.55028571 16.6185417,5.14587755 12.5159375,5.14587755 L12.5159375,5.14587755 Z" id="Fill-27" fill="#1F40E6"></path>
        </g>
    </g>
</svg>