<?xml version="1.0" encoding="UTF-8"?>
<svg width="50px" height="50px" viewBox="0 0 50 50" version="1.1" xmlns="http://www.w3.org/2000/svg" xmlns:xlink="http://www.w3.org/1999/xlink">
    <!-- Generator: Sketch 60.1 (88133) - https://sketch.com -->
    <title>核心竞争力4</title>
    <desc>Created with Sketch.</desc>
    <g id="核心竞争力4" stroke="none" stroke-width="1" fill="none" fill-rule="evenodd">
        <g id="Group-4-Copy" transform="translate(11.000000, 10.000000)" fill="#4272D7">
            <path d="M12.4022727,3.50454545 C7.49727273,3.50454545 3.50681818,7.49545455 3.50681818,12.4 C3.50681818,12.8 3.82863636,13.1227273 4.22590909,13.1227273 C4.62318182,13.1227273 4.945,12.8 4.945,12.4 C4.945,8.29090909 8.29045455,4.94545455 12.4022727,4.94545455 C12.7977273,4.94545455 13.1204545,4.62272727 13.1204545,4.22272727 C13.1204545,3.82727273 12.7977273,3.50454545 12.4022727,3.50454545" id="Fill-50"></path>
            <path d="M12.4022727,23.3636364 C6.35727273,23.3636364 1.43863636,18.4454545 1.43863636,12.4 C1.43863636,6.35454545 6.35727273,1.43636364 12.4022727,1.43636364 C18.4477273,1.43636364 23.3659091,6.35454545 23.3659091,12.4 C23.3659091,18.4454545 18.4477273,23.3636364 12.4022727,23.3636364 Z M12.4022727,8.52651283e-14 C5.56409091,8.52651283e-14 -5.68434189e-14,5.56363636 -5.68434189e-14,12.4 C-5.68434189e-14,19.2409091 5.56409091,24.8045455 12.4022727,24.8045455 C19.2431818,24.8045455 24.8068182,19.2409091 24.8068182,12.4 C24.8068182,5.56363636 19.2431818,8.52651283e-14 12.4022727,8.52651283e-14 L12.4022727,8.52651283e-14 Z" id="Fill-51"></path>
            <path d="M29.5704545,28.55 L23.0704545,22.0545455 C22.7522727,22.4090909 22.4113636,22.75 22.0568182,23.0727273 L28.5522727,29.5681818 C28.6931818,29.7090909 28.875,29.7772727 29.0613636,29.7772727 C29.2431818,29.7772727 29.4295455,29.7090909 29.5704545,29.5681818 C29.8477273,29.2863636 29.8477273,28.8318182 29.5704545,28.55" id="Fill-52"></path>
        </g>
    </g>
</svg>