<?xml version="1.0" encoding="UTF-8"?>
<svg width="30px" height="30px" viewBox="0 0 30 30" version="1.1" xmlns="http://www.w3.org/2000/svg" xmlns:xlink="http://www.w3.org/1999/xlink">
    <!-- Generator: Sketch 60.1 (88133) - https://sketch.com -->
    <title>核心优势3</title>
    <desc>Created with Sketch.</desc>
    <defs>
        <polygon id="path-1" points="0.000208333333 5.20833333e-05 24.9984375 5.20833333e-05 24.9984375 25 0.000208333333 25"></polygon>
    </defs>
    <g id="核心优势3" stroke="none" stroke-width="1" fill="none" fill-rule="evenodd">
        <g id="Group-6" transform="translate(3.000000, 3.000000)">
            <g id="Group-3">
                <mask id="mask-2" fill="white">
                    <use xlink:href="#path-1"></use>
                </mask>
                <g id="Clip-2"></g>
                <path d="M24.2408333,9.46932292 C24.2408333,12.0453646 22.1455208,14.1411979 19.5694792,14.1411979 L18.9684375,14.1411979 C19.5913542,13.0458854 19.9476042,11.7922396 19.948125,10.4818229 C19.948125,10.4813021 19.9486458,10.4802604 19.9486458,10.4792187 L19.9486458,4.92401042 C19.9486458,3.74067708 20.9111458,2.77765625 22.095,2.77765625 L24.2408333,2.77765625 L24.2408333,9.46932292 Z M14.4111458,16.8901563 C14.2502083,16.9380729 14.1403125,17.0854688 14.1403125,17.2526563 L14.1403125,19.1922396 L10.8580208,19.1922396 L10.8580208,17.2526563 C10.8580208,17.0854688 10.748125,16.9380729 10.5871875,16.8901563 C7.773125,16.0521354 5.8075,13.4151563 5.8075,10.4792188 L5.8075,3.78807292 L17.0444792,3.78807292 C17.2533333,3.78807292 17.423125,3.61828125 17.423125,3.40890625 C17.423125,3.20005208 17.2533333,3.03078125 17.0444792,3.03078125 L5.8075,3.03078125 L5.8075,0.75734375 L19.1908333,0.75734375 L19.1908333,10.4792188 C19.1908333,13.4156771 17.2252083,16.0521354 14.4111458,16.8901563 L14.4111458,16.8901563 Z M10.8580208,21.2120313 L14.1408333,21.2120313 L14.1408333,19.9495312 L10.8580208,19.9495312 L10.8580208,21.2120313 Z M16.5392708,21.9703646 C17.8726042,21.9703646 18.979375,22.9594271 19.16375,24.2427604 L5.83458333,24.2427604 C6.01947917,22.9594271 7.12625,21.9703646 8.4590625,21.9703646 L16.5392708,21.9703646 Z M5.429375,14.1411979 C2.85333333,14.1411979 0.7575,12.0453646 0.7575,9.46932292 L0.7575,2.77765625 L2.90385417,2.77765625 C4.08770833,2.77765625 5.05020833,3.74067708 5.05020833,4.92401042 L5.05020833,10.4792187 C5.05020833,11.7901563 5.40697917,13.0448438 6.03041667,14.1411979 L5.429375,14.1411979 Z M24.62,2.02036458 L22.095,2.02036458 C21.2439583,2.02036458 20.4798958,2.39015625 19.948125,2.97557292 L19.948125,0.75734375 L20.5798958,0.75734375 C20.78875,0.75734375 20.9580208,0.588072917 20.9580208,0.37921875 C20.9580208,0.170364583 20.78875,5.20833333e-05 20.5798958,5.20833333e-05 L4.41895833,5.20833333e-05 C4.21010417,5.20833333e-05 4.0403125,0.170364583 4.0403125,0.37921875 C4.0403125,0.588072917 4.21010417,0.75734375 4.41895833,0.75734375 L5.05020833,0.75734375 L5.05020833,2.97505208 C4.51895833,2.39015625 3.75489583,2.02036458 2.90385417,2.02036458 L0.378854167,2.02036458 C0.169479167,2.02036458 0.000208333333,2.18963542 0.000208333333,2.39901042 L0.000208333333,9.46932292 C0.000208333333,12.4630729 2.435625,14.8984896 5.429375,14.8984896 L6.5215625,14.8984896 C7.40697917,16.0953646 8.641875,17.0328646 10.1007292,17.5302604 L10.1007292,19.1922396 L9.46947917,19.1922396 C9.26010417,19.1922396 9.0903125,19.3615104 9.0903125,19.5708854 C9.0903125,19.7797396 9.26010417,19.9495312 9.46947917,19.9495312 L10.1007292,19.9495312 L10.1007292,21.2125521 L8.4590625,21.2125521 C6.579375,21.2125521 5.05020833,22.7417187 5.05020833,24.6214062 C5.05020833,24.8307812 5.21947917,25.0000521 5.429375,25.0000521 L19.5694792,25.0000521 C19.7788542,25.0000521 19.948125,24.8307812 19.948125,24.6214062 C19.948125,22.7417187 18.4189583,21.2125521 16.5392708,21.2125521 L14.898125,21.2125521 L14.898125,19.9495312 L15.529375,19.9495312 C15.73875,19.9495312 15.9080208,19.7797396 15.9080208,19.5708854 C15.9080208,19.3615104 15.73875,19.1922396 15.529375,19.1922396 L14.898125,19.1922396 L14.898125,17.5302604 C16.3564583,17.0328646 17.591875,16.0953646 18.4772917,14.8984896 L19.5694792,14.8984896 C22.5627083,14.8984896 24.9986458,12.4630729 24.9986458,9.46932292 L24.9986458,2.39901042 C24.9986458,2.18963542 24.8288542,2.02036458 24.62,2.02036458 L24.62,2.02036458 Z" id="Fill-1" fill="#1F40E6" mask="url(#mask-2)"></path>
            </g>
            <path d="M14.2264583,10.7505208 C14.136875,10.8375 14.09625,10.9630208 14.1170833,11.0864583 L14.4571875,13.0703125 L12.6754167,12.1328125 C12.5655208,12.075 12.43375,12.075 12.3233333,12.1328125 L10.5410417,13.0703125 L10.8811458,11.0864583 C10.9019792,10.9630208 10.8613542,10.8380208 10.7722917,10.7505208 L9.330625,9.34479167 L11.3233333,9.05572917 C11.44625,9.03802083 11.5530208,8.96041667 11.6082292,8.84791667 L12.499375,7.04322917 L13.3910417,8.84791667 C13.4457292,8.96041667 13.5519792,9.03802083 13.6759375,9.05572917 L15.6686458,9.34479167 L14.2264583,10.7505208 Z M16.536875,8.70572917 L13.9816667,8.334375 L12.8389583,6.01979167 C12.711875,5.7609375 12.286875,5.7609375 12.1597917,6.01979167 L11.0170833,8.334375 L8.46239583,8.70572917 C8.3196875,8.72604167 8.2009375,8.82708333 8.15666667,8.96354167 C8.111875,9.10104167 8.14885417,9.2515625 8.25197917,9.35104167 L10.1009375,11.1536458 L9.66447917,13.6979167 C9.64,13.840625 9.69885417,13.984375 9.815,14.06875 C9.88114583,14.1171875 9.95979167,14.1416667 10.0379167,14.1416667 C10.0983333,14.1416667 10.1582292,14.1265625 10.2139583,14.0973958 L12.499375,12.8963542 L14.7842708,14.0973958 C14.9113542,14.1651042 15.0670833,14.1536458 15.1832292,14.06875 C15.3004167,13.984375 15.3582292,13.840625 15.3342708,13.6979167 L14.8972917,11.1536458 L16.7467708,9.35104167 C16.849375,9.2515625 16.886875,9.10104167 16.8420833,8.96354167 C16.7978125,8.82708333 16.6795833,8.72604167 16.536875,8.70572917 L16.536875,8.70572917 Z" id="Fill-4" fill="#1F40E6"></path>
        </g>
    </g>
</svg>