<?xml version="1.0" encoding="UTF-8"?>
<svg width="50px" height="50px" viewBox="0 0 50 50" version="1.1" xmlns="http://www.w3.org/2000/svg" xmlns:xlink="http://www.w3.org/1999/xlink">
    <!-- Generator: Sketch 60.1 (88133) - https://sketch.com -->
    <title>核心竞争力3</title>
    <desc>Created with Sketch.</desc>
    <g id="核心竞争力3" stroke="none" stroke-width="1" fill="none" fill-rule="evenodd">
        <g id="Group-2-Copy-3" transform="translate(10.000000, 13.000000)" fill="#4272D7">
            <path d="M29.2480519,21.8984416 L0.557142857,21.8984416 C0.249350649,21.8984416 1.13686838e-13,22.1711688 1.13686838e-13,22.5077922 C1.13686838e-13,22.8444156 0.249350649,23.1171429 0.557142857,23.1171429 L29.2480519,23.1171429 C29.5597403,23.1171429 29.8090909,22.8444156 29.8090909,22.5077922 C29.8090909,22.1711688 29.5597403,21.8984416 29.2480519,21.8984416" id="Fill-44"></path>
            <polyline id="Fill-45" points="4.02077922 11.9894805 8.26363636 11.9894805 8.26363636 20.774026 9.48311688 20.774026 9.48311688 10.7707792 2.80519481 10.7707792 2.80519481 20.774026 4.02077922 20.774026 4.02077922 11.9894805"></polyline>
            <polyline id="Fill-46" points="12.638961 8.1112987 16.8818182 8.1112987 16.8818182 20.774026 18.0974026 20.774026 18.0974026 6.8925974 11.4194805 6.8925974 11.4194805 20.774026 12.638961 20.774026 12.638961 8.1112987"></polyline>
            <polyline id="Fill-47" points="21.2532468 1.21831169 25.4961039 1.21831169 25.4961039 20.774026 26.7155844 20.774026 26.7155844 5.68434189e-14 20.0376623 5.68434189e-14 20.0376623 20.774026 21.2532468 20.774026 21.2532468 1.21831169"></polyline>
        </g>
    </g>
</svg>