<?xml version="1.0" encoding="UTF-8"?>
<svg width="50px" height="50px" viewBox="0 0 50 50" version="1.1" xmlns="http://www.w3.org/2000/svg" xmlns:xlink="http://www.w3.org/1999/xlink">
    <!-- Generator: Sketch 60.1 (88133) - https://sketch.com -->
    <title>核心竞争力2</title>
    <desc>Created with Sketch.</desc>
    <g id="核心竞争力2" stroke="none" stroke-width="1" fill="none" fill-rule="evenodd">
        <g id="Group-Copy-2" transform="translate(11.000000, 8.000000)" fill="#4272D7">
            <path d="M22.5468107,9.56103896 L22.5468107,9.56103896 C22.332525,9.77337662 22.3091483,10.1064935 22.4805769,10.3531169 C23.7935639,12.2392208 24.5610964,14.5297403 24.5610964,16.9967532 C24.5610964,23.58 19.0792782,28.9071429 12.4403172,28.6527273 C6.38655093,28.4201299 1.47901847,23.5157143 1.24213535,17.4623377 C0.982265221,10.8194805 6.31057691,5.33220779 12.8961613,5.33220779 C15.3623951,5.33220779 17.6533042,6.1012987 19.5390185,7.41428571 C19.7883691,7.58571429 20.1195379,7.56038961 20.3338237,7.34805195 L20.3338237,7.34727273 C20.6065509,7.07571429 20.5636938,6.62454545 20.2481094,6.40519481 C18.1520055,4.94454545 15.6000574,4.09012987 12.8533042,4.09902112 C5.88784964,4.12246753 0.156291195,9.74454545 0.00317431154,16.7076623 C-0.15812439,24.0490909 5.8488886,30.0545455 13.1883691,29.8909091 C20.1507068,29.7358442 25.7688886,24.0062338 25.7923838,17.0438961 C25.8039535,14.295974 24.9507068,11.744026 23.4896678,9.64441558 C23.2675899,9.32961039 22.8195379,9.28948052 22.5468107,9.56103896" id="Fill-38"></path>
            <path d="M19.6675899,12.172987 L19.6675899,12.172987 C19.4649925,12.3736364 19.4260315,12.6861039 19.5740834,12.9280519 C20.3416159,14.181039 20.7662912,15.6646753 20.7156418,17.2484416 C20.5870704,21.3003896 17.3338237,24.6148052 13.2818756,24.8103896 C8.67707042,25.0332468 4.8775899,21.2462338 5.08135613,16.642987 C5.26135613,12.5863636 8.57187561,9.31363636 12.6312263,9.17805195 C14.2208366,9.12467532 15.7091483,9.54896104 16.9675899,10.3180519 C17.2091483,10.4664935 17.5208366,10.4283117 17.7234341,10.2272727 C18.0039535,9.94441558 17.945512,9.47220779 17.6026548,9.26337662 C16.2390185,8.42766234 14.6338237,7.94493506 12.9195379,7.9406208 C7.9227847,7.92818182 3.84044704,12 3.84044704,16.9967532 C3.84083665,21.9903896 7.9040834,26.0528571 12.8961613,26.0528571 C17.8987587,26.0528571 21.9779795,21.9549351 21.9547029,16.9531169 C21.9429146,15.2458442 21.4636938,13.6507792 20.6299276,12.2898701 C20.4195379,11.9481818 19.9481094,11.8897403 19.6675899,12.172987" id="Fill-39"></path>
            <path d="M16.7260315,14.8445455 L16.7260315,14.8445455 C16.5507068,15.0194805 16.5000574,15.2816883 16.5935639,15.5111688 C16.8078496,16.0418182 16.9091483,16.6285714 16.8701873,17.242987 C16.7494081,19.2455844 15.1208366,20.864026 13.1182392,20.9727273 C10.7579795,21.1005195 8.8075899,19.1606494 8.91979769,16.8035065 C9.01525223,14.7950649 10.6297977,13.1520779 12.6351224,13.0231169 C13.2546029,12.9837662 13.8468107,13.0866234 14.384473,13.3032468 C14.6143431,13.3955844 14.8753821,13.3425974 15.0507068,13.1676623 C15.3662912,12.8528571 15.2494081,12.3225974 14.8364211,12.1562338 C14.2364211,11.9150649 13.5818756,11.7818182 12.8961613,11.7818182 C9.93940808,11.7818182 7.54797951,14.257013 7.68784964,17.2457143 C7.81291457,19.9149351 9.97875873,22.0811688 12.6468107,22.2058442 C15.6351224,22.3453247 18.1130444,19.9550649 18.1130444,16.9967532 C18.1130444,16.3118182 17.9805769,15.6572727 17.7390185,15.0576623 C17.571486,14.6438961 17.0416159,14.5293506 16.7260315,14.8445455" id="Fill-40"></path>
            <path d="M12.8961613,17.6135065 C12.7403172,17.6135065 12.5805769,17.5531169 12.4597977,17.4327273 C12.2221354,17.1919481 12.2221354,16.8015584 12.4597977,16.5607792 L23.7273302,5.29402597 C23.9688886,5.05363636 24.358499,5.05363636 24.6000574,5.29402597 C24.8416159,5.53519481 24.8416159,5.92519481 24.6000574,6.16597403 L13.332525,17.4327273 C13.2117457,17.5531169 13.0559016,17.6135065 12.8961613,17.6135065" id="Fill-41"></path>
            <path d="M27.1130444,6.39311688 L23.5013561,6.39311688 L23.5013561,2.77909091 C23.5013561,2.43896104 23.7779795,2.16272727 24.1169405,2.16272727 C24.4597977,2.16272727 24.732525,2.43896104 24.732525,2.77909091 L24.732525,5.16 L27.1130444,5.16 C27.4559016,5.16 27.732525,5.43623377 27.732525,5.77675325 C27.732525,6.11727273 27.4559016,6.39311688 27.1130444,6.39311688" id="Fill-42"></path>
            <path d="M29.1818756,4.23038961 L25.5701873,4.23038961 L25.5701873,0.616753247 C25.5701873,0.276233766 25.8429146,0 26.1857717,0 C26.5247328,0 26.8013561,0.276233766 26.8013561,0.616753247 L26.8013561,2.99727273 L29.1818756,2.99727273 C29.5247328,2.99727273 29.79746,3.27350649 29.79746,3.61402597 C29.79746,3.95454545 29.5247328,4.23038961 29.1818756,4.23038961" id="Fill-43"></path>
        </g>
    </g>
</svg>