<?xml version="1.0" encoding="UTF-8"?>
<svg width="30px" height="30px" viewBox="0 0 30 30" version="1.1" xmlns="http://www.w3.org/2000/svg" xmlns:xlink="http://www.w3.org/1999/xlink">
    <!-- Generator: Sketch 60.1 (88133) - https://sketch.com -->
    <title>核心优势icon2</title>
    <desc>Created with Sketch.</desc>
    <defs>
        <polygon id="path-1" points="0 7.74193548e-05 24.9999609 7.74193548e-05 24.9999609 17.0323355 0 17.0323355"></polygon>
        <polygon id="path-3" points="0 24 25 24 25 0 0 0"></polygon>
    </defs>
    <g id="核心优势icon2" stroke="none" stroke-width="1" fill="none" fill-rule="evenodd">
        <g id="Group-10" transform="translate(3.000000, 3.000000)">
            <g id="Group-3">
                <mask id="mask-2" fill="white">
                    <use xlink:href="#path-1"></use>
                </mask>
                <g id="Clip-2"></g>
                <path d="M20.2655859,6.98020645 C19.8769141,3.0384 16.5327734,7.74193548e-05 12.4999609,7.74193548e-05 C8.46753906,7.74193548e-05 5.12339844,3.03723871 4.73472656,6.97904516 C2.09410156,7.1547871 -3.90625e-05,9.33994839 -3.90625e-05,12.0000774 C-3.90625e-05,14.7747871 2.27808594,17.0323355 5.07808594,17.0323355 L5.07808594,16.6452387 L5.07808594,16.2581419 C2.70894531,16.2581419 0.781210937,14.3478194 0.781210937,12.0000774 C0.781210937,9.65194839 2.70894531,7.7420129 5.09761719,7.7420129 C5.30582031,7.7420129 5.47691406,7.58059355 5.48785156,7.37504516 C5.68277344,3.67362581 8.76285156,0.774270968 12.4999609,0.774270968 C16.2370703,0.774270968 19.3171484,3.67362581 19.5120703,7.37504516 C19.5230078,7.58059355 19.7140234,7.7420129 19.9218359,7.7420129 C22.2913672,7.7420129 24.2187109,9.65194839 24.2187109,12.0000774 C24.2187109,14.3478194 22.2913672,16.2581419 19.9218359,16.2581419 L19.9218359,16.6452387 L19.9218359,17.0323355 C22.7222266,17.0323355 24.9999609,14.7747871 24.9999609,12.0000774 C24.9999609,9.34536774 22.9151953,7.16446452 20.2655859,6.98020645" id="Fill-1" fill="#1F40E6" mask="url(#mask-2)"></path>
            </g>
            <path d="M16.5717969,12.7741935 C16.3432813,12.0433548 16.0764844,11.4356129 15.8350781,10.9637419 C16.6296094,11.4236129 17.3175,12.0410323 17.858125,12.7741935 L16.5717969,12.7741935 Z M19.120625,16.2580645 L17.1225781,16.2580645 C17.1108594,15.2531613 16.9772656,14.3458065 16.7846875,13.5483871 L18.3561719,13.5483871 C18.7971875,14.364 19.0632031,15.2833548 19.120625,16.2580645 L19.120625,16.2580645 Z M18.3561719,19.7419355 L16.6784375,19.7419355 C16.9311719,18.7846452 17.0624219,17.8792258 17.105,17.0322581 L19.120625,17.0322581 C19.0632031,18.0069677 18.7971875,18.9263226 18.3561719,19.7419355 L18.3561719,19.7419355 Z M15.6901562,22.4136774 C15.99875,21.764129 16.2530469,21.1300645 16.4522656,20.516129 L17.858125,20.516129 C17.2842969,21.2945806 16.5471875,21.9464516 15.6901562,22.4136774 L15.6901562,22.4136774 Z M14.57375,22.8929032 C14.039375,23.0674839 13.4749219,23.172 12.8905469,23.2060645 L12.8905469,20.516129 L15.6280469,20.516129 C15.3651563,21.2787097 15.0190625,22.0722581 14.57375,22.8929032 L14.57375,22.8929032 Z M12.1092969,17.8064516 L12.1092969,19.7419355 L9.11242187,19.7419355 C8.83742188,18.7780645 8.69601563,17.8738065 8.64601563,17.0322581 L9.76554688,17.0322581 L9.76554688,16.2580645 L8.62414062,16.2580645 C8.63195312,15.2396129 8.77375,14.3307097 8.97648438,13.5483871 L12.1092969,13.5483871 L12.1092969,15.483871 L12.8905469,15.483871 L12.8905469,13.5483871 L15.9897656,13.5483871 C16.1921094,14.3322581 16.3358594,15.2411613 16.3471875,16.2580645 L15.2342969,16.2580645 L15.2342969,17.0322581 L16.3272656,17.0322581 C16.2807813,17.8753548 16.1432813,18.7803871 15.8733594,19.7419355 L12.8905469,19.7419355 L12.8905469,17.8064516 L12.1092969,17.8064516 Z M12.1092969,23.2060645 C11.5229688,23.172 10.9561719,23.0663226 10.4198438,22.8905806 C9.97414063,22.0691613 9.62609375,21.2763871 9.36125,20.516129 L12.1092969,20.516129 L12.1092969,23.2060645 Z M7.14171875,20.516129 L8.5425,20.516129 C8.74132813,21.1265806 8.99445312,21.759871 9.30304687,22.4098065 C8.44914063,21.9429677 7.71398437,21.2922581 7.14171875,20.516129 L7.14171875,20.516129 Z M5.87921875,17.0322581 L7.8815625,17.0322581 C7.92648437,17.8683871 8.05617188,18.7745806 8.3128125,19.7419355 L6.64367187,19.7419355 C6.20265625,18.9263226 5.93664063,18.0069677 5.87921875,17.0322581 L5.87921875,17.0322581 Z M6.64367187,13.5483871 L8.1909375,13.5483871 C8.18234375,13.5847742 8.17257813,13.6188387 8.164375,13.6552258 C7.99523438,14.3864516 7.87179687,15.264 7.86359375,16.2580645 L5.87921875,16.2580645 C5.93664063,15.2833548 6.20265625,14.364 6.64367187,13.5483871 L6.64367187,13.5483871 Z M9.13976562,10.9788387 C8.89757812,11.4472258 8.63195312,12.0491613 8.40460937,12.7741935 L7.14171875,12.7741935 C7.676875,12.0487742 8.35578125,11.4371613 9.13976562,10.9788387 L9.13976562,10.9788387 Z M10.3811719,10.4136774 C10.9292188,10.2305806 11.5085156,10.1190968 12.1092969,10.0842581 L12.1092969,12.7741935 L9.20890625,12.7741935 C9.63625,11.5219355 10.17375,10.7028387 10.3811719,10.4136774 L10.3811719,10.4136774 Z M12.8905469,10.0842581 C13.4878125,10.1190968 14.0639844,10.2290323 14.6092969,10.4105806 C14.8038281,10.6877419 15.3346875,11.5107097 15.7604688,12.7741935 L12.8905469,12.7741935 L12.8905469,10.0842581 Z M12.4999219,9.29032258 C8.40773437,9.29032258 5.07804688,12.5895484 5.07804688,16.6451613 C5.07804688,20.7007742 8.40773437,24 12.4999219,24 C16.5925,24 19.9217969,20.7007742 19.9217969,16.6451613 C19.9217969,12.5895484 16.5925,9.29032258 12.4999219,9.29032258 L12.4999219,9.29032258 Z" id="Fill-4" fill="#1F40E6"></path>
            <mask id="mask-4" fill="white">
                <use xlink:href="#path-3"></use>
            </mask>
            <g id="Clip-7"></g>
            <polygon id="Fill-6" fill="#4272D7" mask="url(#mask-4)" points="12.109375 17.0322581 12.890625 17.0322581 12.890625 16.2580645 12.109375 16.2580645"></polygon>
            <polygon id="Fill-8" fill="#4272D7" mask="url(#mask-4)" points="13.671875 17.0322581 14.453125 17.0322581 14.453125 16.2580645 13.671875 16.2580645"></polygon>
            <polygon id="Fill-9" fill="#4272D7" mask="url(#mask-4)" points="10.546875 17.0322581 11.328125 17.0322581 11.328125 16.2580645 10.546875 16.2580645"></polygon>
        </g>
    </g>
</svg>