<?xml version="1.0" encoding="UTF-8"?>
<svg width="20px" height="20px" viewBox="0 0 20 20" version="1.1" xmlns="http://www.w3.org/2000/svg" xmlns:xlink="http://www.w3.org/1999/xlink">
    <!-- Generator: Sketch 60.1 (88133) - https://sketch.com -->
    <title>灵活用工</title>
    <desc>Created with Sketch.</desc>
    <defs>
        <polygon id="path-1" points="0.0282847981 0.0536956522 16.9790225 0.0536956522 16.9790225 5.72018939 0.0282847981 5.72018939"></polygon>
        <polygon id="path-3" points="4.16666667e-05 0.41201087 20 0.41201087 20 10.7938587 4.16666667e-05 10.7938587"></polygon>
    </defs>
    <g id="灵活用工" stroke="none" stroke-width="1" fill="none" fill-rule="evenodd">
        <g id="Group-11">
            <g id="Group-3" transform="translate(1.666667, 0.359389)">
                <mask id="mask-2" fill="white">
                    <use xlink:href="#path-1"></use>
                </mask>
                <g id="Clip-2"></g>
                <path d="M0.179833333,5.67955435 C0.324416667,5.76298913 0.509833333,5.71383696 0.593583333,5.56968478 L1.27233333,4.40490217 C1.299,4.3586413 1.34066667,4.34211957 1.36275,4.33633696 C1.38483333,4.3301413 1.42941667,4.3243587 1.47608333,4.35079348 L2.53108333,4.95466304 C2.66108333,5.02859783 2.82525,4.99844565 2.919,4.88238043 C3.24608333,4.47842391 3.619,4.10875 4.02691667,3.78409783 C4.14358333,3.69116304 4.17441667,3.52801087 4.09983333,3.39955435 L3.49066667,2.35372826 C3.46358333,2.30746739 3.46983333,2.26368478 3.47566667,2.24138043 C3.4815,2.21948913 3.49858333,2.17818478 3.54525,2.15133696 L4.71983333,1.47931522 C4.7915,1.43801087 4.88316667,1.46279348 4.924,1.53342391 L5.53275,2.57801087 C5.60691667,2.70646739 5.76566667,2.76098913 5.90483333,2.70770652 C6.39733333,2.51729348 6.90691667,2.38181522 7.41858333,2.30457609 C7.5665,2.28227174 7.67608333,2.15588043 7.67608333,2.00759783 L7.67608333,0.802336957 C7.67608333,0.720967391 7.74275,0.654467391 7.82525,0.654467391 L9.18191667,0.654467391 C9.26441667,0.654467391 9.33108333,0.720967391 9.33108333,0.802336957 L9.33108333,2.00759783 C9.33108333,2.15588043 9.44066667,2.28227174 9.589,2.30457609 C10.1006667,2.38181522 10.6098333,2.51729348 11.1023333,2.70770652 C11.2406667,2.76140217 11.3998333,2.70646739 11.4748333,2.57801087 L12.0831667,1.53342391 C12.1244167,1.46238043 12.2148333,1.43801087 12.2873333,1.47931522 L13.4619167,2.15133696 C13.5331667,2.1926413 13.55775,2.28309783 13.5165,2.35372826 L12.90775,3.39955435 C12.83275,3.52801087 12.8635833,3.69116304 12.98025,3.78409783 C13.3885833,4.10875 13.7610833,4.47842391 14.0881667,4.88238043 C14.1819167,4.99844565 14.3465,5.02859783 14.4765,4.95466304 L15.5315,4.35079348 C15.5781667,4.32394565 15.62275,4.3301413 15.6444167,4.33633696 C15.6669167,4.34211957 15.7085833,4.3586413 15.73525,4.40490217 L16.4135833,5.56968478 C16.4698333,5.66592391 16.5715,5.72003261 16.6760833,5.72003261 C16.72775,5.72003261 16.7798333,5.70681522 16.82775,5.67955435 C16.9723333,5.59653261 17.0219167,5.4131413 16.9385833,5.26940217 L16.26025,4.10461957 C16.1594167,3.93155435 15.9960833,3.80722826 15.8015,3.75559783 C15.6056667,3.70396739 15.4031667,3.73040217 15.2281667,3.8303587 L14.3944167,4.30783696 C14.1381667,4.01209783 13.859,3.73494565 13.56025,3.48051087 L14.0415,2.65401087 C14.1423333,2.48094565 14.169,2.27896739 14.1169167,2.08607609 C14.0648333,1.89277174 13.9398333,1.73127174 13.7648333,1.63131522 L12.59025,0.958880435 C12.41525,0.858923913 12.2115,0.832076087 12.0173333,0.884119565 C11.8219167,0.93575 11.6594167,1.05966304 11.5585833,1.23272826 L11.07775,2.05798913 C10.7035833,1.92746739 10.3219167,1.82544565 9.93733333,1.75398913 L9.93733333,0.802336957 C9.93733333,0.389293478 9.59858333,0.0534891304 9.18191667,0.0534891304 L7.82525,0.0534891304 C7.409,0.0534891304 7.06983333,0.389293478 7.06983333,0.802336957 L7.06983333,1.75398913 C6.68525,1.82544565 6.30358333,1.92746739 5.92941667,2.05798913 L5.449,1.23272826 C5.34816667,1.05966304 5.18525,0.93575 4.99025,0.884119565 C4.79525,0.832076087 4.5915,0.858923913 4.41691667,0.958880435 L3.24233333,1.63131522 C3.06733333,1.73127174 2.94233333,1.89277174 2.89025,2.08566304 C2.83816667,2.27938043 2.86483333,2.48094565 2.96608333,2.65401087 L3.44691667,3.48051087 C3.14858333,3.73494565 2.86941667,4.01209783 2.61275,4.30783696 L1.779,3.8303587 C1.604,3.73040217 1.40025,3.70355435 1.20566667,3.75559783 C1.01108333,3.80722826 0.848166667,3.93155435 0.747333333,4.10461957 L0.069,5.26940217 C-0.01475,5.4131413 0.0348333333,5.59653261 0.179833333,5.67955435" id="Fill-1" fill="#FFFFFF" mask="url(#mask-2)"></path>
            </g>
            <path d="M18.49425,13.3202804 C18.3496667,13.2372587 18.1638333,13.2859978 18.0800833,13.43015 L17.4013333,14.5953457 C17.3750833,14.6411935 17.3334167,14.6581283 17.3113333,14.6639109 C17.2888333,14.6701065 17.2446667,14.6754761 17.198,14.6490413 L16.143,14.0455848 C16.013,13.971237 15.8488333,14.0018022 15.7550833,14.1178674 C15.428,14.5218239 15.0550833,14.8914978 14.6471667,15.215737 C14.5305,15.3086717 14.4996667,15.4718239 14.57425,15.6006935 L15.1834167,16.6465196 C15.2100833,16.6927804 15.20425,16.736563 15.1984167,16.7584543 C15.1921667,16.7807587 15.1755,16.82165 15.1288333,16.8484978 L13.9538333,17.5209326 C13.88175,17.5609978 13.7909167,17.5370413 13.7496667,17.4668239 L13.1413333,16.422237 C13.0663333,16.2933674 12.9075833,16.2384326 12.7688333,16.2925413 C12.2763333,16.4825413 11.76675,16.6184326 11.2555,16.6952587 C11.1071667,16.717563 10.998,16.8439543 10.998,16.992237 L10.998,18.1974978 C10.998,18.2792804 10.9309167,18.3457804 10.8488333,18.3457804 L9.49175,18.3457804 C9.40966667,18.3457804 9.34258333,18.2792804 9.34258333,18.1974978 L9.34258333,16.992237 C9.34258333,16.8439543 9.233,16.717563 9.08508333,16.6952587 C8.57383333,16.6184326 8.06425,16.4825413 7.57175,16.2925413 C7.43216667,16.2388457 7.27383333,16.2933674 7.19925,16.422237 L6.59091667,17.4668239 C6.54966667,17.5370413 6.458,17.5609978 6.38675,17.5209326 L5.21216667,16.8484978 C5.16508333,16.82165 5.14841667,16.7803457 5.14258333,16.7584543 C5.13633333,16.736563 5.13008333,16.6927804 5.15716667,16.6465196 L5.76633333,15.6006935 C5.84091667,15.4718239 5.8105,15.3086717 5.69341667,15.215737 C5.2855,14.8914978 4.913,14.5218239 4.5855,14.1178674 C4.49175,14.0018022 4.32758333,13.971237 4.19758333,14.0455848 L3.14258333,14.6490413 C3.09633333,14.6758891 3.05216667,14.6692804 3.02925,14.6639109 C3.00716667,14.6581283 2.96591667,14.6411935 2.93883333,14.5949326 L2.2605,13.43015 C2.17675,13.2859978 1.99091667,13.2372587 1.84633333,13.3202804 C1.70133333,13.4033022 1.65216667,13.5871065 1.7355,13.7308457 L2.41383333,14.8952152 C2.51466667,15.0682804 2.67758333,15.1926065 2.87258333,15.244237 C3.06675,15.2958674 3.27091667,15.2694326 3.4455,15.1694761 L4.27925,14.6924109 C4.53591667,14.988563 4.81508333,15.2653022 5.11383333,15.5193239 L4.63258333,16.3458239 C4.53133333,16.5188891 4.50466667,16.7204543 4.55675,16.9137587 C4.60925,17.107063 4.73425,17.268563 4.90883333,17.3685196 L6.08383333,18.0413674 C6.44466667,18.2474761 6.90716667,18.1248022 7.1155,17.7671065 L7.59633333,16.9422587 C7.97008333,17.0727804 8.35216667,17.1743891 8.73675,17.2458457 L8.73675,18.1974978 C8.73675,18.6105413 9.0755,18.9463457 9.49175,18.9463457 L10.8488333,18.9463457 C11.2650833,18.9463457 11.6038333,18.6105413 11.6038333,18.1974978 L11.6038333,17.2458457 C11.9884167,17.1743891 12.3705,17.0727804 12.7446667,16.9422587 L13.2250833,17.7671065 C13.4334167,18.1248022 13.8963333,18.2478891 14.2571667,18.0413674 L15.43175,17.3685196 C15.6063333,17.268563 15.7313333,17.107063 15.7838333,16.9137587 C15.8359167,16.7208674 15.8088333,16.5188891 15.708,16.3458239 L15.2271667,15.5193239 C15.5255,15.2653022 15.8046667,14.988563 16.0613333,14.6924109 L16.8950833,15.1694761 C17.0696667,15.2694326 17.2738333,15.2962804 17.4684167,15.244237 C17.6634167,15.1921935 17.8259167,15.0682804 17.92675,14.8952152 L18.6050833,13.7308457 C18.6888333,13.5871065 18.63925,13.4033022 18.49425,13.3202804" id="Fill-4" fill="#FFFFFF"></path>
            <path d="M4.24804167,10.805713 L2.936375,10.805713 L2.28054167,9.67975652 L2.936375,8.5538 L4.24804167,8.5538 L4.903875,9.67975652 L4.24804167,10.805713 Z M4.68554167,8.10316957 C4.631375,8.01023478 4.531375,7.95282174 4.42304167,7.95282174 L2.761375,7.95282174 C2.65304167,7.95282174 2.55304167,8.01023478 2.49929167,8.10316957 L1.66804167,9.52982174 C1.613875,9.62234348 1.613875,9.73716957 1.66804167,9.83010435 L2.49929167,11.2563435 C2.55304167,11.3492783 2.65304167,11.4066913 2.761375,11.4066913 L4.42304167,11.4066913 C4.531375,11.4066913 4.631375,11.3492783 4.68554167,11.2563435 L5.51595833,9.83010435 C5.57054167,9.73716957 5.57054167,9.62234348 5.51595833,9.52982174 L4.68554167,8.10316957 Z" id="Fill-6" fill="#FFFFFF"></path>
            <g id="Group-10" transform="translate(0.000000, 4.076780)">
                <mask id="mask-4" fill="white">
                    <use xlink:href="#path-3"></use>
                </mask>
                <g id="Clip-9"></g>
                <path d="M16.7429583,8.56301087 C15.7550417,8.56301087 14.832125,8.07892391 14.2742083,7.26770652 C14.2179583,7.18592391 14.1242083,7.13677174 14.0237917,7.13677174 L6.31129167,7.13677174 C6.210875,7.13677174 6.11754167,7.18592391 6.060875,7.26770652 C5.50254167,8.07892391 4.58004167,8.56301087 3.592125,8.56301087 C1.945875,8.56301087 0.605875,7.23507609 0.605875,5.60272826 C0.605875,3.97079348 1.945875,2.6428587 3.592125,2.6428587 C4.58004167,2.6428587 5.50295833,3.12694565 6.060875,3.93816304 C6.11754167,4.01994565 6.210875,4.06951087 6.31129167,4.06951087 L14.0237917,4.06951087 C14.1242083,4.06951087 14.2179583,4.01994565 14.2742083,3.93816304 C14.832125,3.12694565 15.7550417,2.6428587 16.7429583,2.6428587 C17.7204583,2.6428587 18.6100417,3.10505435 19.1654583,3.87620652 L16.323375,3.87620652 C16.2150417,3.87620652 16.1150417,3.93361957 16.060875,4.02655435 L15.2300417,5.45279348 C15.175875,5.54572826 15.175875,5.6601413 15.2300417,5.75307609 L16.060875,7.17931522 C16.1150417,7.27225 16.2150417,7.32966304 16.323375,7.32966304 L19.1654583,7.32966304 C18.6100417,8.10040217 17.7204583,8.56301087 16.7429583,8.56301087 M10.1704583,10.1932935 C8.508375,10.1932935 7.04920833,9.32011957 6.232125,8.01283696 C6.31379167,7.9248587 6.39379167,7.83440217 6.46670833,7.73733696 L13.868375,7.73733696 C13.940875,7.83357609 14.0204583,7.92361957 14.1017083,8.01118478 C13.2862917,9.31846739 11.8317083,10.1932935 10.1704583,10.1932935 M10.1704583,1.01257609 C11.8317083,1.01257609 13.2829583,1.89029348 14.1000417,3.19633696 C14.0192083,3.28348913 13.9404583,3.37311957 13.868375,3.46853261 L6.46670833,3.46853261 C6.395875,3.37477174 6.318375,3.28761957 6.239625,3.20211957 C7.055875,1.89318478 8.507125,1.01257609 10.1704583,1.01257609 M19.697125,6.72909783 L16.498375,6.72909783 L15.8425417,5.60272826 L16.498375,4.47677174 L19.697125,4.47677174 C19.8017083,4.47677174 19.8987917,4.42348913 19.9542083,4.33592391 C20.0092083,4.24753261 20.0154583,4.13766304 19.9692083,4.04472826 C19.3612917,2.80931522 18.124625,2.04188043 16.7429583,2.04188043 C15.9404583,2.04188043 15.1767083,2.31201087 14.5562917,2.78494565 C13.622125,1.35994565 12.0087917,0.41201087 10.1704583,0.41201087 C8.33045833,0.41201087 6.71629167,1.36118478 5.783375,2.78866304 C5.16254167,2.31325 4.39670833,2.04188043 3.592125,2.04188043 C1.61170833,2.04188043 4.16666667e-05,3.63953261 4.16666667e-05,5.60272826 C4.16666667e-05,7.56633696 1.61170833,9.16357609 3.592125,9.16357609 C4.395875,9.16357609 5.160875,8.89303261 5.78129167,8.4188587 C6.71545833,9.84509783 8.330875,10.7938587 10.1704583,10.7938587 C12.0087917,10.7938587 13.6237917,9.84675 14.5575417,8.42175 C15.1775417,8.89427174 15.940875,9.16357609 16.7429583,9.16357609 C18.124625,9.16357609 19.3612917,8.3961413 19.9692083,7.1611413 C20.0154583,7.06779348 20.0092083,6.95792391 19.9542083,6.86994565 C19.8987917,6.78238043 19.8017083,6.72909783 19.697125,6.72909783" id="Fill-8" fill="#FFFFFF" mask="url(#mask-4)"></path>
            </g>
        </g>
    </g>
</svg>