<?xml version="1.0" encoding="UTF-8"?>
<svg width="30px" height="30px" viewBox="0 0 30 30" version="1.1" xmlns="http://www.w3.org/2000/svg" xmlns:xlink="http://www.w3.org/1999/xlink">
    <!-- Generator: Sketch 60.1 (88133) - https://sketch.com -->
    <title>领英icon</title>
    <desc>Created with Sketch.</desc>
    <g id="领英icon" stroke="none" stroke-width="1" fill="none" fill-rule="evenodd">
        <g id="linkedin-icon-1-logo-svg-vector" transform="translate(3.000000, 3.000000)" fill="#FFFFFF" fill-rule="nonzero">
            <path d="M0,2.77439574 C0,1.97020698 0.281539575,1.30676452 0.844594595,0.784068362 C1.40764961,0.261348079 2.13964768,0 3.04054054,0 C3.92536197,0 4.64124035,0.257319174 5.18822394,0.772005772 C5.75127896,1.30275974 6.03281853,1.99433216 6.03281853,2.84677128 C6.03281853,3.61877706 5.7593388,4.26209912 5.21235521,4.77678571 C4.64930019,5.30753968 3.90926641,5.57291667 2.99227799,5.57291667 L2.96814672,5.57291667 C2.08332529,5.57291667 1.36744691,5.30753968 0.82046332,4.77678571 C0.27347973,4.24603175 0,3.57856038 0,2.77439574 Z M0.313706564,23.8839286 L0.313706564,7.76830808 L5.67084942,7.76830808 L5.67084942,23.8839286 L0.313706564,23.8839286 Z M8.63899614,23.8839286 L13.996139,23.8839286 L13.996139,14.8852363 C13.996139,14.3222993 14.0604971,13.8880461 14.1891892,13.5824766 C14.4144064,13.0356311 14.7562741,12.5732238 15.2147683,12.1952787 C15.6732625,11.8173095 16.2483832,11.6283369 16.9401544,11.6283369 C18.7419643,11.6283369 19.6428571,12.8426296 19.6428571,15.2712392 L19.6428571,23.8839286 L25,23.8839286 L25,14.6439845 C25,12.2636253 24.436945,10.4582657 23.3108108,9.22788149 C22.1846766,7.99749729 20.6965975,7.38230519 18.8465251,7.38230519 C16.7712355,7.38230519 15.1544402,8.27493687 13.996139,10.0602002 L13.996139,10.1084506 L13.9720077,10.1084506 L13.996139,10.0602002 L13.996139,7.76830808 L8.63899614,7.76830808 C8.67116313,8.28297055 8.68725869,9.88326614 8.68725869,12.569219 C8.68725869,15.2551477 8.67116313,19.0267095 8.63899614,23.8839286 Z" id="Shape"></path>
        </g>
    </g>
</svg>