<?xml version="1.0" encoding="UTF-8"?>
<svg width="34px" height="34px" viewBox="0 0 34 34" version="1.1" xmlns="http://www.w3.org/2000/svg" xmlns:xlink="http://www.w3.org/1999/xlink">
    <!-- Generator: Sketch 60.1 (88133) - https://sketch.com -->
    <title>骄人成绩icon</title>
    <desc>Created with Sketch.</desc>
    <g id="骄人成绩icon" stroke="none" stroke-width="1" fill="none" fill-rule="evenodd">
        <g id="Group">
            <rect id="Rectangle" fill="#4272D7" x="0" y="0" width="34" height="34"></rect>
            <g id="Group-9" transform="translate(7.000000, 5.000000)" fill="#FFFFFF">
                <path d="M15.2911795,17.9037949 C15.0855385,17.9037949 14.918359,18.0709744 14.918359,18.2771282 L14.918359,23.6627692 L9.97579487,21.4166154 C9.87733333,21.3714872 9.76502564,21.3714872 9.6665641,21.4166154 L4.72451282,23.6627692 L4.72451282,18.2771282 C4.72451282,18.0709744 4.55682051,17.9037949 4.35117949,17.9037949 C4.14553846,17.9037949 3.97835897,18.0709744 3.97835897,18.2771282 L3.97835897,24.2417436 C3.97835897,24.3689231 4.04246154,24.4873846 4.14912821,24.5555897 C4.25579487,24.6243077 4.39015385,24.6345641 4.50553846,24.5812308 L9.82092308,22.1653333 L15.1368205,24.5812308 C15.1860513,24.6037949 15.2388718,24.6150769 15.2911795,24.6150769 C15.3614359,24.6150769 15.4322051,24.5955897 15.4932308,24.5555897 C15.5998974,24.4873846 15.6645128,24.3689231 15.6645128,24.2417436 L15.6645128,18.2771282 C15.6645128,18.0709744 15.4968205,17.9037949 15.2911795,17.9037949" id="Fill-1"></path>
                <path d="M17.758359,11.2381538 C17.6922051,11.3273846 17.669641,11.4412308 17.6963077,11.5494359 L18.1214359,13.2591795 L16.6122051,14.1673846 C16.5168205,14.2248205 16.4522051,14.3217436 16.4352821,14.432 L16.1742564,16.1740513 L14.4316923,16.4355897 C14.3219487,16.4514872 14.2250256,16.5166154 14.1675897,16.612 L13.2593846,18.1217436 L11.549641,17.6966154 C11.4419487,17.6704615 11.3275897,17.6925128 11.2378462,17.7586667 L9.82092308,18.8053333 L8.40451282,17.7586667 C8.33989744,17.7104615 8.26194872,17.6853333 8.18297436,17.6853333 C8.15271795,17.6853333 8.12246154,17.6889231 8.09271795,17.6966154 L6.38297436,18.1217436 L5.47476923,16.612 C5.41784615,16.5166154 5.32092308,16.4514872 5.21066667,16.4355897 L3.46861538,16.1740513 L3.20707692,14.432 C3.19066667,14.3217436 3.12553846,14.2248205 3.03066667,14.1673846 L1.52041026,13.2591795 L1.9465641,11.5494359 C1.97323077,11.4412308 1.95066667,11.3273846 1.884,11.2381538 L0.836820513,9.82071795 L1.884,8.40482051 C1.95066667,8.31507692 1.97323077,8.20071795 1.9465641,8.09251282 L1.52041026,6.38276923 L3.03066667,5.47507692 C3.12553846,5.41764103 3.19066667,5.32071795 3.20707692,5.21046154 L3.46861538,3.46841026 L5.21066667,3.20738462 C5.32092308,3.19046154 5.41784615,3.12584615 5.47476923,3.03046154 L6.38297436,1.52071795 L8.09271795,1.94635897 C8.20092308,1.97302564 8.31528205,1.95046154 8.40451282,1.88430769 L9.82092308,0.836615385 L11.2378462,1.88430769 C11.3270769,1.94994872 11.4409231,1.972 11.549641,1.94635897 L13.2593846,1.52071795 L14.1675897,3.03046154 C14.2250256,3.12584615 14.3219487,3.19046154 14.4316923,3.20738462 L16.1742564,3.46841026 L16.4352821,5.21046154 C16.4522051,5.32071795 16.5168205,5.41764103 16.6122051,5.47507692 L18.1214359,6.38276923 L17.6963077,8.09251282 C17.669641,8.20071795 17.6922051,8.31507692 17.758359,8.40482051 L18.8055385,9.82071795 L17.758359,11.2381538 Z M19.5691282,9.59969231 L18.4624615,8.10225641 L18.9122051,6.29507692 C18.9516923,6.13661538 18.8829744,5.97097436 18.7424615,5.88584615 L17.1470769,4.92584615 L16.8711795,3.08533333 C16.8465641,2.92276923 16.7193846,2.79558974 16.5573333,2.77148718 L14.7163077,2.49507692 L13.7563077,0.899692308 C13.6716923,0.759692308 13.5065641,0.692512821 13.3465641,0.730461538 L11.5404103,1.18020513 L10.0429744,0.0735384615 C9.91117949,-0.0244102564 9.73117949,-0.0244102564 9.59938462,0.0735384615 L8.10246154,1.18020513 L6.29579487,0.730461538 C6.13579487,0.692512821 5.97066667,0.759692308 5.88605128,0.899692308 L4.9265641,2.49507692 L3.08502564,2.77148718 C2.92297436,2.79558974 2.79579487,2.92276923 2.77169231,3.08533333 L2.49528205,4.92584615 L0.899897436,5.88584615 C0.759384615,5.97097436 0.690666667,6.13661538 0.730153846,6.29507692 L1.17989744,8.10225641 L0.0732307692,9.59969231 C-0.0242051282,9.73148718 -0.0242051282,9.91097436 0.0732307692,10.0432821 L1.17989744,11.5402051 L0.730153846,13.346359 C0.690666667,13.5058462 0.759384615,13.672 0.899897436,13.7561026 L2.49528205,14.7155897 L2.77169231,16.557641 C2.79579487,16.7191795 2.92297436,16.8468718 3.08502564,16.8709744 L4.9265641,17.1468718 L5.88605128,18.7422564 C5.97066667,18.8827692 6.13579487,18.9514872 6.29579487,18.9125128 L8.10246154,18.4627692 L9.59938462,19.5694359 C9.66553846,19.6181538 9.74348718,19.6427692 9.82092308,19.6427692 C9.89887179,19.6427692 9.97733333,19.6181538 10.0429744,19.5694359 L11.5404103,18.4627692 L13.3465641,18.9125128 C13.5065641,18.9514872 13.6716923,18.8827692 13.7563077,18.7422564 L14.7163077,17.1468718 L16.5573333,16.8709744 C16.7193846,16.8468718 16.8465641,16.7191795 16.8711795,16.557641 L17.1470769,14.7155897 L18.7424615,13.7561026 C18.8829744,13.672 18.9516923,13.5058462 18.9122051,13.346359 L18.4624615,11.5402051 L19.5691282,10.0432821 C19.6665641,9.91097436 19.6665641,9.73148718 19.5691282,9.59969231 L19.5691282,9.59969231 Z" id="Fill-3"></path>
                <path d="M9.82117949,15.9126154 C6.46220513,15.9126154 3.72989744,13.1803077 3.72989744,9.82082051 C3.72989744,6.46235897 6.46220513,3.72953846 9.82117949,3.72953846 C13.1801538,3.72953846 15.9129744,6.46235897 15.9129744,9.82082051 C15.9129744,13.1803077 13.1801538,15.9126154 9.82117949,15.9126154 M9.82117949,2.98389744 C6.05092308,2.98389744 2.98374359,6.05107692 2.98374359,9.82082051 C2.98374359,13.5915897 6.05092308,16.6587692 9.82117949,16.6587692 C13.5914359,16.6587692 16.6586154,13.5915897 16.6586154,9.82082051 C16.6586154,6.05107692 13.5914359,2.98389744 9.82117949,2.98389744" id="Fill-5"></path>
                <path d="M11.5499487,10.2270256 C11.4622564,10.3126667 11.4217436,10.4357436 11.4427692,10.5572821 L11.7848205,12.5495897 L9.9945641,11.6085641 C9.88584615,11.551641 9.75610256,11.551641 9.64789744,11.6085641 L7.85815385,12.5495897 L8.19969231,10.5572821 C8.22020513,10.4357436 8.18020513,10.3126667 8.09251282,10.2270256 L6.64482051,8.81523077 L8.64584615,8.52497436 C8.76738462,8.50702564 8.87251282,8.43061538 8.92635897,8.32035897 L9.82123077,6.50753846 L10.7161026,8.32035897 C10.7704615,8.43061538 10.8755897,8.50702564 10.9966154,8.52497436 L12.9981538,8.81523077 L11.5499487,10.2270256 Z M13.8530256,8.186 L11.2981538,7.81471795 L10.1555897,5.49984615 C10.0304615,5.24548718 9.612,5.24548718 9.48687179,5.49984615 L8.34430769,7.81471795 L5.7894359,8.186 C5.64892308,8.20651282 5.53251282,8.30446154 5.48841026,8.43984615 C5.44482051,8.57471795 5.48123077,8.72292308 5.58276923,8.82241026 L7.43148718,10.6239487 L6.99507692,13.1680513 C6.97097436,13.3085641 7.02892308,13.4495897 7.14328205,13.5336923 C7.20841026,13.5808718 7.28584615,13.6049744 7.36276923,13.6049744 C7.42225641,13.6049744 7.48174359,13.5911282 7.53610256,13.5618974 L9.82123077,12.3598462 L12.106359,13.5618974 C12.2325128,13.6280513 12.3843077,13.6167692 12.4991795,13.5336923 C12.6140513,13.4495897 12.6714872,13.3085641 12.6473846,13.1680513 L12.2109744,10.6239487 L14.0596923,8.82241026 C14.1612308,8.72292308 14.1981538,8.57471795 14.1540513,8.43984615 C14.1104615,8.30446154 13.9935385,8.20651282 13.8530256,8.186 L13.8530256,8.186 Z" id="Fill-7"></path>
            </g>
        </g>
    </g>
</svg>