<?xml version="1.0" encoding="UTF-8"?>
<svg width="20px" height="20px" viewBox="0 0 20 20" version="1.1" xmlns="http://www.w3.org/2000/svg" xmlns:xlink="http://www.w3.org/1999/xlink">
    <!-- Generator: Sketch 60.1 (88133) - https://sketch.com -->
    <title>高端人才寻访</title>
    <desc>Created with Sketch.</desc>
    <defs>
        <polygon id="path-1" points="4.08163265e-05 0.39776 19.5920816 0.39776 19.5920816 19.6 4.08163265e-05 19.6"></polygon>
    </defs>
    <g id="高端人才寻访" stroke="none" stroke-width="1" fill="none" fill-rule="evenodd">
        <g id="Group-8">
            <g id="Group-3" transform="translate(0.000000, 0.002320)">
                <mask id="mask-2" fill="white">
                    <use xlink:href="#path-1"></use>
                </mask>
                <g id="Clip-2"></g>
                <path d="M18.8594286,17.59416 L17.5435102,18.88336 C17.3520816,19.07016 17.0418776,19.07016 16.8500408,18.88336 L13.3422857,15.44616 L15.3520816,13.47696 L18.8594286,16.91416 C18.9524898,17.00496 19.0035102,17.12576 19.0035102,17.25416 C19.0035102,17.38256 18.9524898,17.50296 18.8594286,17.59416 L18.8594286,17.59416 Z M12.2365714,13.37176 C12.4165714,13.22576 12.5924898,13.07216 12.7614694,12.90736 C12.9292245,12.74256 13.0867755,12.57056 13.2365714,12.39416 L14.430449,13.56416 L13.4316735,14.54336 L12.2365714,13.37176 Z M2.60269388,12.49976 C-0.0830204082,9.86696 -0.0830204082,5.58416 2.60269388,2.95216 C3.90391837,1.67696 5.63412245,0.97456 7.47412245,0.97456 C9.31412245,0.97456 11.0443265,1.67696 12.3451429,2.95216 C13.6467755,4.22696 14.3626939,5.92216 14.3626939,7.72536 C14.3626939,9.52896 13.6467755,11.22416 12.3451429,12.49976 C9.65861224,15.13136 5.28881633,15.13136 2.60269388,12.49976 L2.60269388,12.49976 Z M19.2757551,16.50616 L15.5602449,12.86536 C15.4451429,12.75256 15.2590204,12.75256 15.1439184,12.86536 L14.8467755,13.15656 L13.5941224,11.92856 C14.4724898,10.70496 14.9516735,9.25256 14.9516735,7.72536 C14.9516735,5.76856 14.1741224,3.92816 12.7614694,2.54416 C11.3492245,1.15976 9.47126531,0.39776 7.47412245,0.39776 C5.47657143,0.39776 3.59902041,1.15976 2.18636735,2.54416 C-0.728734694,5.40136 -0.728734694,10.05056 2.18636735,12.90736 C3.64432653,14.33576 5.55942857,15.05016 7.47412245,15.05016 C8.97820408,15.05016 10.4786122,14.60256 11.7606531,13.72136 L13.0157551,14.95096 L12.7182041,15.24216 C12.663102,15.29656 12.6320816,15.36936 12.6320816,15.44616 C12.6320816,15.52296 12.663102,15.59616 12.7182041,15.65016 L16.4341224,19.29096 C16.6443265,19.49736 16.9206531,19.60056 17.1969796,19.6001612 C17.4733061,19.6001612 17.7492245,19.49736 17.9598367,19.29096 L19.2757551,18.00216 C19.4798367,17.80216 19.5920816,17.53616 19.5920816,17.25416 C19.5920816,16.97136 19.4798367,16.70576 19.2757551,16.50616 L19.2757551,16.50616 Z" id="Fill-1" fill="#FFFFFF" mask="url(#mask-2)"></path>
            </g>
            <path d="M10.8727347,11.05896 C9.96497959,11.94896 8.75804082,12.43856 7.47395918,12.43856 C6.18987755,12.43856 4.98293878,11.94896 4.07518367,11.05896 C2.20089796,9.22216 2.20089796,6.23376 4.07518367,4.39696 C4.98293878,3.50736 6.18987755,3.01736 7.47395918,3.01736 C8.75804082,3.01736 9.96497959,3.50736 10.8727347,4.39696 C11.780898,5.28656 12.2804898,6.46976 12.2804898,7.72776 C12.2804898,8.98616 11.780898,10.16896 10.8727347,11.05896 M11.2890612,3.98896 C10.2698776,2.99016 8.91518367,2.44016 7.47395918,2.44016 C6.03273469,2.44016 4.67763265,2.99016 3.65885714,3.98896 C1.55518367,6.05056 1.55518367,9.40496 3.65885714,11.46696 C4.67763265,12.46536 6.03273469,13.01536 7.47395918,13.01536 C8.91518367,13.01536 10.2698776,12.46536 11.2890612,11.46696 C12.3086531,10.46816 12.8694694,9.14016 12.8694694,7.72776 C12.8694694,6.31576 12.3086531,4.98776 11.2890612,3.98896" id="Fill-4" fill="#FFFFFF"></path>
            <path d="M7.47412245,4.17068 C5.4724898,4.17068 3.84432653,5.76628 3.84432653,7.72788 C3.84432653,7.88708 3.97616327,8.01628 4.13861224,8.01628 C4.30106122,8.01628 4.43289796,7.88708 4.43289796,7.72788 C4.43289796,6.08468 5.79697959,4.74748 7.47412245,4.74748 C7.63657143,4.74748 7.76840816,4.61828 7.76840816,4.45908 C7.76840816,4.29988 7.63657143,4.17068 7.47412245,4.17068" id="Fill-6" fill="#FFFFFF"></path>
        </g>
    </g>
</svg>